<?xml version="1.0" encoding="utf-8" standalone="no"?>
<!DOCTYPE svg PUBLIC "-//W3C//DTD SVG 1.1//EN"
  "http://www.w3.org/Graphics/SVG/1.1/DTD/svg11.dtd">
<svg xmlns:xlink="http://www.w3.org/1999/xlink" width="515.10725pt" height="628.7435pt" viewBox="0 0 515.10725 628.7435" xmlns="http://www.w3.org/2000/svg" version="1.1">
 <metadata>
  <rdf:RDF xmlns:dc="http://purl.org/dc/elements/1.1/" xmlns:cc="http://creativecommons.org/ns#" xmlns:rdf="http://www.w3.org/1999/02/22-rdf-syntax-ns#">
   <cc:Work>
    <dc:type rdf:resource="http://purl.org/dc/dcmitype/StillImage"/>
    <dc:date>2025-12-09T11:46:21.263805</dc:date>
    <dc:format>image/svg+xml</dc:format>
    <dc:creator>
     <cc:Agent>
      <dc:title>Matplotlib v3.9.0, https://matplotlib.org/</dc:title>
     </cc:Agent>
    </dc:creator>
   </cc:Work>
  </rdf:RDF>
 </metadata>
 <defs>
  <style type="text/css">*{stroke-linejoin: round; stroke-linecap: butt}</style>
 </defs>
 <g id="figure_1">
  <g id="patch_1">
   <path d="M 0 628.7435 
L 515.10725 628.7435 
L 515.10725 0 
L 0 0 
z
" style="fill: #ffffff"/>
  </g>
  <g id="axes_1">
   <g id="patch_2">
    <path d="M 461.636 331.1601 
C 461.636 301.322106 455.758566 271.774248 444.34006 244.207536 
C 432.921554 216.640824 416.184037 191.59136 395.085389 170.492711 
C 373.98674 149.394063 348.937276 132.656546 321.370564 121.23804 
C 293.803852 109.819534 264.255994 103.9421 234.418 103.9421 
C 204.580006 103.9421 175.032148 109.819534 147.465436 121.23804 
C 119.898724 132.656546 94.84926 149.394063 73.750611 170.492711 
C 52.651963 191.59136 35.914446 216.640824 24.49594 244.207536 
C 13.077434 271.774248 7.2 301.322106 7.2 331.1601 
C 7.2 360.998094 13.077434 390.545952 24.49594 418.112664 
C 35.914446 445.679376 52.651963 470.72884 73.750611 491.827489 
C 94.84926 512.926137 119.898724 529.663654 147.465436 541.08216 
C 175.032148 552.500666 204.580006 558.3781 234.418 558.3781 
C 264.255994 558.3781 293.803852 552.500666 321.370564 541.08216 
C 348.937276 529.663654 373.98674 512.926137 395.085389 491.827489 
C 416.184037 470.72884 432.921554 445.679376 444.34006 418.112664 
C 455.758566 390.545952 461.636 360.998094 461.636 331.1601 
M 234.418 331.1601 
C 234.418 331.1601 234.418 331.1601 234.418 331.1601 
C 234.418 331.1601 234.418 331.1601 234.418 331.1601 
C 234.418 331.1601 234.418 331.1601 234.418 331.1601 
C 234.418 331.1601 234.418 331.1601 234.418 331.1601 
C 234.418 331.1601 234.418 331.1601 234.418 331.1601 
C 234.418 331.1601 234.418 331.1601 234.418 331.1601 
C 234.418 331.1601 234.418 331.1601 234.418 331.1601 
C 234.418 331.1601 234.418 331.1601 234.418 331.1601 
C 234.418 331.1601 234.418 331.1601 234.418 331.1601 
C 234.418 331.1601 234.418 331.1601 234.418 331.1601 
C 234.418 331.1601 234.418 331.1601 234.418 331.1601 
C 234.418 331.1601 234.418 331.1601 234.418 331.1601 
C 234.418 331.1601 234.418 331.1601 234.418 331.1601 
C 234.418 331.1601 234.418 331.1601 234.418 331.1601 
C 234.418 331.1601 234.418 331.1601 234.418 331.1601 
C 234.418 331.1601 234.418 331.1601 234.418 331.1601 
z
" style="fill: #ffffff"/>
   </g>
   <g id="matplotlib.axis_1">
    <g id="xtick_1">
     <g id="line2d_1">
      <path d="M 234.418 331.1601 
L 461.636 331.1601 
" clip-path="url(#p6563d83a4e)" style="fill: none; stroke-dasharray: 1,1.65; stroke-dashoffset: 0; stroke: #808080; stroke-opacity: 0.8"/>
     </g>
     <g id="text_1">
      <!-- Overall -->
      <g transform="translate(443.36475 335.5751) scale(0.16 -0.16)">
       <defs>
        <path id="DejaVuSans-Bold-4f" d="M 2719 3878 
Q 2169 3878 1866 3472 
Q 1563 3066 1563 2328 
Q 1563 1594 1866 1187 
Q 2169 781 2719 781 
Q 3272 781 3575 1187 
Q 3878 1594 3878 2328 
Q 3878 3066 3575 3472 
Q 3272 3878 2719 3878 
z
M 2719 4750 
Q 3844 4750 4481 4106 
Q 5119 3463 5119 2328 
Q 5119 1197 4481 553 
Q 3844 -91 2719 -91 
Q 1597 -91 958 553 
Q 319 1197 319 2328 
Q 319 3463 958 4106 
Q 1597 4750 2719 4750 
z
" transform="scale(0.015625)"/>
        <path id="DejaVuSans-Bold-76" d="M 97 3500 
L 1216 3500 
L 2088 1081 
L 2956 3500 
L 4078 3500 
L 2700 0 
L 1472 0 
L 97 3500 
z
" transform="scale(0.015625)"/>
        <path id="DejaVuSans-Bold-65" d="M 4031 1759 
L 4031 1441 
L 1416 1441 
Q 1456 1047 1700 850 
Q 1944 653 2381 653 
Q 2734 653 3104 758 
Q 3475 863 3866 1075 
L 3866 213 
Q 3469 63 3072 -14 
Q 2675 -91 2278 -91 
Q 1328 -91 801 392 
Q 275 875 275 1747 
Q 275 2603 792 3093 
Q 1309 3584 2216 3584 
Q 3041 3584 3536 3087 
Q 4031 2591 4031 1759 
z
M 2881 2131 
Q 2881 2450 2695 2645 
Q 2509 2841 2209 2841 
Q 1884 2841 1681 2658 
Q 1478 2475 1428 2131 
L 2881 2131 
z
" transform="scale(0.015625)"/>
        <path id="DejaVuSans-Bold-72" d="M 3138 2547 
Q 2991 2616 2845 2648 
Q 2700 2681 2553 2681 
Q 2122 2681 1889 2404 
Q 1656 2128 1656 1613 
L 1656 0 
L 538 0 
L 538 3500 
L 1656 3500 
L 1656 2925 
Q 1872 3269 2151 3426 
Q 2431 3584 2822 3584 
Q 2878 3584 2943 3579 
Q 3009 3575 3134 3559 
L 3138 2547 
z
" transform="scale(0.015625)"/>
        <path id="DejaVuSans-Bold-61" d="M 2106 1575 
Q 1756 1575 1579 1456 
Q 1403 1338 1403 1106 
Q 1403 894 1545 773 
Q 1688 653 1941 653 
Q 2256 653 2472 879 
Q 2688 1106 2688 1447 
L 2688 1575 
L 2106 1575 
z
M 3816 1997 
L 3816 0 
L 2688 0 
L 2688 519 
Q 2463 200 2181 54 
Q 1900 -91 1497 -91 
Q 953 -91 614 226 
Q 275 544 275 1050 
Q 275 1666 698 1953 
Q 1122 2241 2028 2241 
L 2688 2241 
L 2688 2328 
Q 2688 2594 2478 2717 
Q 2269 2841 1825 2841 
Q 1466 2841 1156 2769 
Q 847 2697 581 2553 
L 581 3406 
Q 941 3494 1303 3539 
Q 1666 3584 2028 3584 
Q 2975 3584 3395 3211 
Q 3816 2838 3816 1997 
z
" transform="scale(0.015625)"/>
        <path id="DejaVuSans-Bold-6c" d="M 538 4863 
L 1656 4863 
L 1656 0 
L 538 0 
L 538 4863 
z
" transform="scale(0.015625)"/>
       </defs>
       <use xlink:href="#DejaVuSans-Bold-4f"/>
       <use xlink:href="#DejaVuSans-Bold-76" x="85.009766"/>
       <use xlink:href="#DejaVuSans-Bold-65" x="150.195312"/>
       <use xlink:href="#DejaVuSans-Bold-72" x="218.017578"/>
       <use xlink:href="#DejaVuSans-Bold-61" x="267.333984"/>
       <use xlink:href="#DejaVuSans-Bold-6c" x="334.814453"/>
       <use xlink:href="#DejaVuSans-Bold-6c" x="369.091797"/>
      </g>
     </g>
    </g>
    <g id="xtick_2">
     <g id="line2d_2">
      <path d="M 234.418 331.1601 
L 120.809 134.38354 
" clip-path="url(#p6563d83a4e)" style="fill: none; stroke-dasharray: 1,1.65; stroke-dashoffset: 0; stroke: #808080; stroke-opacity: 0.8"/>
     </g>
     <g id="text_2">
      <!-- Known Scenes -->
      <g transform="translate(48.73525 126.674184) scale(0.16 -0.16)">
       <defs>
        <path id="DejaVuSans-Bold-4b" d="M 588 4666 
L 1791 4666 
L 1791 2963 
L 3525 4666 
L 4922 4666 
L 2675 2456 
L 5153 0 
L 3647 0 
L 1791 1838 
L 1791 0 
L 588 0 
L 588 4666 
z
" transform="scale(0.015625)"/>
        <path id="DejaVuSans-Bold-6e" d="M 4056 2131 
L 4056 0 
L 2931 0 
L 2931 347 
L 2931 1631 
Q 2931 2084 2911 2256 
Q 2891 2428 2841 2509 
Q 2775 2619 2662 2680 
Q 2550 2741 2406 2741 
Q 2056 2741 1856 2470 
Q 1656 2200 1656 1722 
L 1656 0 
L 538 0 
L 538 3500 
L 1656 3500 
L 1656 2988 
Q 1909 3294 2193 3439 
Q 2478 3584 2822 3584 
Q 3428 3584 3742 3212 
Q 4056 2841 4056 2131 
z
" transform="scale(0.015625)"/>
        <path id="DejaVuSans-Bold-6f" d="M 2203 2784 
Q 1831 2784 1636 2517 
Q 1441 2250 1441 1747 
Q 1441 1244 1636 976 
Q 1831 709 2203 709 
Q 2569 709 2762 976 
Q 2956 1244 2956 1747 
Q 2956 2250 2762 2517 
Q 2569 2784 2203 2784 
z
M 2203 3584 
Q 3106 3584 3614 3096 
Q 4122 2609 4122 1747 
Q 4122 884 3614 396 
Q 3106 -91 2203 -91 
Q 1297 -91 786 396 
Q 275 884 275 1747 
Q 275 2609 786 3096 
Q 1297 3584 2203 3584 
z
" transform="scale(0.015625)"/>
        <path id="DejaVuSans-Bold-77" d="M 225 3500 
L 1313 3500 
L 1900 1088 
L 2491 3500 
L 3425 3500 
L 4013 1113 
L 4603 3500 
L 5691 3500 
L 4769 0 
L 3547 0 
L 2956 2406 
L 2369 0 
L 1147 0 
L 225 3500 
z
" transform="scale(0.015625)"/>
        <path id="DejaVuSans-Bold-20" transform="scale(0.015625)"/>
        <path id="DejaVuSans-Bold-53" d="M 3834 4519 
L 3834 3531 
Q 3450 3703 3084 3790 
Q 2719 3878 2394 3878 
Q 1963 3878 1756 3759 
Q 1550 3641 1550 3391 
Q 1550 3203 1689 3098 
Q 1828 2994 2194 2919 
L 2706 2816 
Q 3484 2659 3812 2340 
Q 4141 2022 4141 1434 
Q 4141 663 3683 286 
Q 3225 -91 2284 -91 
Q 1841 -91 1394 -6 
Q 947 78 500 244 
L 500 1259 
Q 947 1022 1364 901 
Q 1781 781 2169 781 
Q 2563 781 2772 912 
Q 2981 1044 2981 1288 
Q 2981 1506 2839 1625 
Q 2697 1744 2272 1838 
L 1806 1941 
Q 1106 2091 782 2419 
Q 459 2747 459 3303 
Q 459 4000 909 4375 
Q 1359 4750 2203 4750 
Q 2588 4750 2994 4692 
Q 3400 4634 3834 4519 
z
" transform="scale(0.015625)"/>
        <path id="DejaVuSans-Bold-63" d="M 3366 3391 
L 3366 2478 
Q 3138 2634 2908 2709 
Q 2678 2784 2431 2784 
Q 1963 2784 1702 2511 
Q 1441 2238 1441 1747 
Q 1441 1256 1702 982 
Q 1963 709 2431 709 
Q 2694 709 2930 787 
Q 3166 866 3366 1019 
L 3366 103 
Q 3103 6 2833 -42 
Q 2563 -91 2291 -91 
Q 1344 -91 809 395 
Q 275 881 275 1747 
Q 275 2613 809 3098 
Q 1344 3584 2291 3584 
Q 2566 3584 2833 3536 
Q 3100 3488 3366 3391 
z
" transform="scale(0.015625)"/>
        <path id="DejaVuSans-Bold-73" d="M 3272 3391 
L 3272 2541 
Q 2913 2691 2578 2766 
Q 2244 2841 1947 2841 
Q 1628 2841 1473 2761 
Q 1319 2681 1319 2516 
Q 1319 2381 1436 2309 
Q 1553 2238 1856 2203 
L 2053 2175 
Q 2913 2066 3209 1816 
Q 3506 1566 3506 1031 
Q 3506 472 3093 190 
Q 2681 -91 1863 -91 
Q 1516 -91 1145 -36 
Q 775 19 384 128 
L 384 978 
Q 719 816 1070 734 
Q 1422 653 1784 653 
Q 2113 653 2278 743 
Q 2444 834 2444 1013 
Q 2444 1163 2330 1236 
Q 2216 1309 1875 1350 
L 1678 1375 
Q 931 1469 631 1722 
Q 331 1975 331 2491 
Q 331 3047 712 3315 
Q 1094 3584 1881 3584 
Q 2191 3584 2531 3537 
Q 2872 3491 3272 3391 
z
" transform="scale(0.015625)"/>
       </defs>
       <use xlink:href="#DejaVuSans-Bold-4b"/>
       <use xlink:href="#DejaVuSans-Bold-6e" x="77.490234"/>
       <use xlink:href="#DejaVuSans-Bold-6f" x="148.681641"/>
       <use xlink:href="#DejaVuSans-Bold-77" x="217.382812"/>
       <use xlink:href="#DejaVuSans-Bold-6e" x="309.765625"/>
       <use xlink:href="#DejaVuSans-Bold-20" x="380.957031"/>
       <use xlink:href="#DejaVuSans-Bold-53" x="415.771484"/>
       <use xlink:href="#DejaVuSans-Bold-63" x="487.792969"/>
       <use xlink:href="#DejaVuSans-Bold-65" x="547.070312"/>
       <use xlink:href="#DejaVuSans-Bold-6e" x="614.892578"/>
       <use xlink:href="#DejaVuSans-Bold-65" x="686.083984"/>
       <use xlink:href="#DejaVuSans-Bold-73" x="753.90625"/>
      </g>
     </g>
    </g>
    <g id="xtick_3">
     <g id="line2d_3">
      <path d="M 234.418 331.1601 
L 120.809 527.93666 
" clip-path="url(#p6563d83a4e)" style="fill: none; stroke-dasharray: 1,1.65; stroke-dashoffset: 0; stroke: #808080; stroke-opacity: 0.8"/>
     </g>
     <g id="text_3">
      <!-- Unknown Scenes -->
      <g style="fill: #d62728" transform="translate(18.326187 545.579766) scale(0.2 -0.2)">
       <defs>
        <path id="DejaVuSans-Bold-55" d="M 588 4666 
L 1791 4666 
L 1791 1869 
Q 1791 1291 1980 1042 
Q 2169 794 2597 794 
Q 3028 794 3217 1042 
Q 3406 1291 3406 1869 
L 3406 4666 
L 4609 4666 
L 4609 1869 
Q 4609 878 4112 393 
Q 3616 -91 2597 -91 
Q 1581 -91 1084 393 
Q 588 878 588 1869 
L 588 4666 
z
" transform="scale(0.015625)"/>
        <path id="DejaVuSans-Bold-6b" d="M 538 4863 
L 1656 4863 
L 1656 2216 
L 2944 3500 
L 4244 3500 
L 2534 1894 
L 4378 0 
L 3022 0 
L 1656 1459 
L 1656 0 
L 538 0 
L 538 4863 
z
" transform="scale(0.015625)"/>
       </defs>
       <use xlink:href="#DejaVuSans-Bold-55"/>
       <use xlink:href="#DejaVuSans-Bold-6e" x="81.201172"/>
       <use xlink:href="#DejaVuSans-Bold-6b" x="152.392578"/>
       <use xlink:href="#DejaVuSans-Bold-6e" x="218.896484"/>
       <use xlink:href="#DejaVuSans-Bold-6f" x="290.087891"/>
       <use xlink:href="#DejaVuSans-Bold-77" x="358.789062"/>
       <use xlink:href="#DejaVuSans-Bold-6e" x="451.171875"/>
       <use xlink:href="#DejaVuSans-Bold-20" x="522.363281"/>
       <use xlink:href="#DejaVuSans-Bold-53" x="557.177734"/>
       <use xlink:href="#DejaVuSans-Bold-63" x="629.199219"/>
       <use xlink:href="#DejaVuSans-Bold-65" x="688.476562"/>
       <use xlink:href="#DejaVuSans-Bold-6e" x="756.298828"/>
       <use xlink:href="#DejaVuSans-Bold-65" x="827.490234"/>
       <use xlink:href="#DejaVuSans-Bold-73" x="895.3125"/>
      </g>
     </g>
    </g>
   </g>
   <g id="matplotlib.axis_2">
    <g id="ytick_1">
     <g id="line2d_4">
      <path d="M 234.418 331.1601 
C 234.418 331.1601 234.418 331.1601 234.418 331.1601 
C 234.418 331.1601 234.418 331.1601 234.418 331.1601 
C 234.418 331.1601 234.418 331.1601 234.418 331.1601 
C 234.418 331.1601 234.418 331.1601 234.418 331.1601 
C 234.418 331.1601 234.418 331.1601 234.418 331.1601 
C 234.418 331.1601 234.418 331.1601 234.418 331.1601 
C 234.418 331.1601 234.418 331.1601 234.418 331.1601 
C 234.418 331.1601 234.418 331.1601 234.418 331.1601 
C 234.418 331.1601 234.418 331.1601 234.418 331.1601 
C 234.418 331.1601 234.418 331.1601 234.418 331.1601 
C 234.418 331.1601 234.418 331.1601 234.418 331.1601 
C 234.418 331.1601 234.418 331.1601 234.418 331.1601 
C 234.418 331.1601 234.418 331.1601 234.418 331.1601 
C 234.418 331.1601 234.418 331.1601 234.418 331.1601 
C 234.418 331.1601 234.418 331.1601 234.418 331.1601 
C 234.418 331.1601 234.418 331.1601 234.418 331.1601 
" clip-path="url(#p6563d83a4e)" style="fill: none; stroke-dasharray: 1,1.65; stroke-dashoffset: 0; stroke: #808080; stroke-opacity: 0.8"/>
     </g>
     <g id="text_4">
      <!-- 0.80 -->
      <g transform="translate(234.418 328.664475) scale(0.12 -0.12)">
       <defs>
        <path id="DejaVuSans-Bold-30" d="M 2944 2338 
Q 2944 3213 2780 3570 
Q 2616 3928 2228 3928 
Q 1841 3928 1675 3570 
Q 1509 3213 1509 2338 
Q 1509 1453 1675 1090 
Q 1841 728 2228 728 
Q 2613 728 2778 1090 
Q 2944 1453 2944 2338 
z
M 4147 2328 
Q 4147 1169 3647 539 
Q 3147 -91 2228 -91 
Q 1306 -91 806 539 
Q 306 1169 306 2328 
Q 306 3491 806 4120 
Q 1306 4750 2228 4750 
Q 3147 4750 3647 4120 
Q 4147 3491 4147 2328 
z
" transform="scale(0.015625)"/>
        <path id="DejaVuSans-Bold-2e" d="M 653 1209 
L 1778 1209 
L 1778 0 
L 653 0 
L 653 1209 
z
" transform="scale(0.015625)"/>
        <path id="DejaVuSans-Bold-38" d="M 2228 2088 
Q 1891 2088 1709 1903 
Q 1528 1719 1528 1375 
Q 1528 1031 1709 848 
Q 1891 666 2228 666 
Q 2563 666 2741 848 
Q 2919 1031 2919 1375 
Q 2919 1722 2741 1905 
Q 2563 2088 2228 2088 
z
M 1350 2484 
Q 925 2613 709 2878 
Q 494 3144 494 3541 
Q 494 4131 934 4440 
Q 1375 4750 2228 4750 
Q 3075 4750 3515 4442 
Q 3956 4134 3956 3541 
Q 3956 3144 3739 2878 
Q 3522 2613 3097 2484 
Q 3572 2353 3814 2058 
Q 4056 1763 4056 1313 
Q 4056 619 3595 264 
Q 3134 -91 2228 -91 
Q 1319 -91 855 264 
Q 391 619 391 1313 
Q 391 1763 633 2058 
Q 875 2353 1350 2484 
z
M 1631 3419 
Q 1631 3141 1786 2991 
Q 1941 2841 2228 2841 
Q 2509 2841 2662 2991 
Q 2816 3141 2816 3419 
Q 2816 3697 2662 3845 
Q 2509 3994 2228 3994 
Q 1941 3994 1786 3844 
Q 1631 3694 1631 3419 
z
" transform="scale(0.015625)"/>
       </defs>
       <use xlink:href="#DejaVuSans-Bold-30"/>
       <use xlink:href="#DejaVuSans-Bold-2e" x="69.580078"/>
       <use xlink:href="#DejaVuSans-Bold-38" x="107.568359"/>
       <use xlink:href="#DejaVuSans-Bold-30" x="177.148438"/>
      </g>
     </g>
    </g>
    <g id="ytick_2">
     <g id="line2d_5">
      <path d="M 291.2225 331.1601 
C 291.2225 323.700601 289.753141 316.313637 286.898515 309.421959 
C 284.043888 302.530281 279.859509 296.267915 274.584847 290.993253 
C 269.310185 285.718591 263.047819 281.534212 256.156141 278.679585 
C 249.264463 275.824959 241.877499 274.3556 234.418 274.3556 
C 226.958501 274.3556 219.571537 275.824959 212.679859 278.679585 
C 205.788181 281.534212 199.525815 285.718591 194.251153 290.993253 
C 188.976491 296.267915 184.792112 302.530281 181.937485 309.421959 
C 179.082859 316.313637 177.6135 323.700601 177.6135 331.1601 
C 177.6135 338.619599 179.082859 346.006563 181.937485 352.898241 
C 184.792112 359.789919 188.976491 366.052285 194.251153 371.326947 
C 199.525815 376.601609 205.788181 380.785988 212.679859 383.640615 
C 219.571537 386.495241 226.958501 387.9646 234.418 387.9646 
C 241.877499 387.9646 249.264463 386.495241 256.156141 383.640615 
C 263.047819 380.785988 269.310185 376.601609 274.584847 371.326947 
C 279.859509 366.052285 284.043888 359.789919 286.898515 352.898241 
C 289.753141 346.006563 291.2225 338.619599 291.2225 331.1601 
" clip-path="url(#p6563d83a4e)" style="fill: none; stroke-dasharray: 1,1.65; stroke-dashoffset: 0; stroke: #808080; stroke-opacity: 0.8"/>
     </g>
     <g id="text_5">
      <!-- 0.83 -->
      <g transform="translate(291.2225 328.664475) scale(0.12 -0.12)">
       <defs>
        <path id="DejaVuSans-Bold-33" d="M 2981 2516 
Q 3453 2394 3698 2092 
Q 3944 1791 3944 1325 
Q 3944 631 3412 270 
Q 2881 -91 1863 -91 
Q 1503 -91 1142 -33 
Q 781 25 428 141 
L 428 1069 
Q 766 900 1098 814 
Q 1431 728 1753 728 
Q 2231 728 2486 893 
Q 2741 1059 2741 1369 
Q 2741 1688 2480 1852 
Q 2219 2016 1709 2016 
L 1228 2016 
L 1228 2791 
L 1734 2791 
Q 2188 2791 2409 2933 
Q 2631 3075 2631 3366 
Q 2631 3634 2415 3781 
Q 2200 3928 1806 3928 
Q 1516 3928 1219 3862 
Q 922 3797 628 3669 
L 628 4550 
Q 984 4650 1334 4700 
Q 1684 4750 2022 4750 
Q 2931 4750 3382 4451 
Q 3834 4153 3834 3553 
Q 3834 3144 3618 2883 
Q 3403 2622 2981 2516 
z
" transform="scale(0.015625)"/>
       </defs>
       <use xlink:href="#DejaVuSans-Bold-30"/>
       <use xlink:href="#DejaVuSans-Bold-2e" x="69.580078"/>
       <use xlink:href="#DejaVuSans-Bold-38" x="107.568359"/>
       <use xlink:href="#DejaVuSans-Bold-33" x="177.148438"/>
      </g>
     </g>
    </g>
    <g id="ytick_3">
     <g id="line2d_6">
      <path d="M 348.027 331.1601 
C 348.027 316.241103 345.088283 301.467174 339.37903 287.683818 
C 333.669777 273.900462 325.301018 261.37573 314.751694 250.826406 
C 304.20237 240.277082 291.677638 231.908323 277.894282 226.19907 
C 264.110926 220.489817 249.336997 217.5511 234.418 217.5511 
C 219.499003 217.5511 204.725074 220.489817 190.941718 226.19907 
C 177.158362 231.908323 164.63363 240.277082 154.084306 250.826406 
C 143.534982 261.37573 135.166223 273.900462 129.45697 287.683818 
C 123.747717 301.467174 120.809 316.241103 120.809 331.1601 
C 120.809 346.079097 123.747717 360.853026 129.45697 374.636382 
C 135.166223 388.419738 143.534982 400.94447 154.084306 411.493794 
C 164.63363 422.043118 177.158362 430.411877 190.941718 436.12113 
C 204.725074 441.830383 219.499003 444.7691 234.418 444.7691 
C 249.336997 444.7691 264.110926 441.830383 277.894282 436.12113 
C 291.677638 430.411877 304.20237 422.043118 314.751694 411.493794 
C 325.301018 400.94447 333.669777 388.419738 339.37903 374.636382 
C 345.088283 360.853026 348.027 346.079097 348.027 331.1601 
" clip-path="url(#p6563d83a4e)" style="fill: none; stroke-dasharray: 1,1.65; stroke-dashoffset: 0; stroke: #808080; stroke-opacity: 0.8"/>
     </g>
     <g id="text_6">
      <!-- 0.86 -->
      <g transform="translate(348.027 328.664475) scale(0.12 -0.12)">
       <defs>
        <path id="DejaVuSans-Bold-36" d="M 2316 2303 
Q 2000 2303 1842 2098 
Q 1684 1894 1684 1484 
Q 1684 1075 1842 870 
Q 2000 666 2316 666 
Q 2634 666 2792 870 
Q 2950 1075 2950 1484 
Q 2950 1894 2792 2098 
Q 2634 2303 2316 2303 
z
M 3803 4544 
L 3803 3681 
Q 3506 3822 3243 3889 
Q 2981 3956 2731 3956 
Q 2194 3956 1894 3657 
Q 1594 3359 1544 2772 
Q 1750 2925 1990 3001 
Q 2231 3078 2516 3078 
Q 3231 3078 3670 2659 
Q 4109 2241 4109 1563 
Q 4109 813 3618 361 
Q 3128 -91 2303 -91 
Q 1394 -91 895 523 
Q 397 1138 397 2266 
Q 397 3422 980 4083 
Q 1563 4744 2578 4744 
Q 2900 4744 3203 4694 
Q 3506 4644 3803 4544 
z
" transform="scale(0.015625)"/>
       </defs>
       <use xlink:href="#DejaVuSans-Bold-30"/>
       <use xlink:href="#DejaVuSans-Bold-2e" x="69.580078"/>
       <use xlink:href="#DejaVuSans-Bold-38" x="107.568359"/>
       <use xlink:href="#DejaVuSans-Bold-36" x="177.148438"/>
      </g>
     </g>
    </g>
    <g id="ytick_4">
     <g id="line2d_7">
      <path d="M 404.8315 331.1601 
C 404.8315 308.781604 400.423424 286.620711 391.859545 265.945677 
C 383.295665 245.270643 370.742528 226.483545 354.918541 210.659559 
C 339.094555 194.835572 320.307457 182.282435 299.632423 173.718555 
C 278.957389 165.154676 256.796496 160.7466 234.418 160.7466 
C 212.039504 160.7466 189.878611 165.154676 169.203577 173.718555 
C 148.528543 182.282435 129.741445 194.835572 113.917459 210.659559 
C 98.093472 226.483545 85.540335 245.270643 76.976455 265.945677 
C 68.412576 286.620711 64.0045 308.781604 64.0045 331.1601 
C 64.0045 353.538596 68.412576 375.699489 76.976455 396.374523 
C 85.540335 417.049557 98.093472 435.836655 113.917459 451.660641 
C 129.741445 467.484628 148.528543 480.037765 169.203577 488.601645 
C 189.878611 497.165524 212.039504 501.5736 234.418 501.5736 
C 256.796496 501.5736 278.957389 497.165524 299.632423 488.601645 
C 320.307457 480.037765 339.094555 467.484628 354.918541 451.660641 
C 370.742528 435.836655 383.295665 417.049557 391.859545 396.374523 
C 400.423424 375.699489 404.8315 353.538596 404.8315 331.1601 
" clip-path="url(#p6563d83a4e)" style="fill: none; stroke-dasharray: 1,1.65; stroke-dashoffset: 0; stroke: #808080; stroke-opacity: 0.8"/>
     </g>
     <g id="text_7">
      <!-- 0.89 -->
      <g transform="translate(404.8315 328.664475) scale(0.12 -0.12)">
       <defs>
        <path id="DejaVuSans-Bold-39" d="M 641 103 
L 641 966 
Q 928 831 1190 764 
Q 1453 697 1709 697 
Q 2247 697 2547 995 
Q 2847 1294 2900 1881 
Q 2688 1725 2447 1647 
Q 2206 1569 1925 1569 
Q 1209 1569 770 1986 
Q 331 2403 331 3084 
Q 331 3838 820 4291 
Q 1309 4744 2131 4744 
Q 3044 4744 3544 4128 
Q 4044 3513 4044 2388 
Q 4044 1231 3459 570 
Q 2875 -91 1856 -91 
Q 1528 -91 1228 -42 
Q 928 6 641 103 
z
M 2125 2350 
Q 2441 2350 2600 2554 
Q 2759 2759 2759 3169 
Q 2759 3575 2600 3781 
Q 2441 3988 2125 3988 
Q 1809 3988 1650 3781 
Q 1491 3575 1491 3169 
Q 1491 2759 1650 2554 
Q 1809 2350 2125 2350 
z
" transform="scale(0.015625)"/>
       </defs>
       <use xlink:href="#DejaVuSans-Bold-30"/>
       <use xlink:href="#DejaVuSans-Bold-2e" x="69.580078"/>
       <use xlink:href="#DejaVuSans-Bold-38" x="107.568359"/>
       <use xlink:href="#DejaVuSans-Bold-39" x="177.148438"/>
      </g>
     </g>
    </g>
    <g id="ytick_5">
     <g id="line2d_8">
      <path d="M 461.636 331.1601 
C 461.636 301.322106 455.758566 271.774248 444.34006 244.207536 
C 432.921554 216.640824 416.184037 191.59136 395.085389 170.492711 
C 373.98674 149.394063 348.937276 132.656546 321.370564 121.23804 
C 293.803852 109.819534 264.255994 103.9421 234.418 103.9421 
C 204.580006 103.9421 175.032148 109.819534 147.465436 121.23804 
C 119.898724 132.656546 94.84926 149.394063 73.750611 170.492711 
C 52.651963 191.59136 35.914446 216.640824 24.49594 244.207536 
C 13.077434 271.774248 7.2 301.322106 7.2 331.1601 
C 7.2 360.998094 13.077434 390.545952 24.49594 418.112664 
C 35.914446 445.679376 52.651963 470.72884 73.750611 491.827489 
C 94.84926 512.926137 119.898724 529.663654 147.465436 541.08216 
C 175.032148 552.500666 204.580006 558.3781 234.418 558.3781 
C 264.255994 558.3781 293.803852 552.500666 321.370564 541.08216 
C 348.937276 529.663654 373.98674 512.926137 395.085389 491.827489 
C 416.184037 470.72884 432.921554 445.679376 444.34006 418.112664 
C 455.758566 390.545952 461.636 360.998094 461.636 331.1601 
" clip-path="url(#p6563d83a4e)" style="fill: none; stroke-dasharray: 1,1.65; stroke-dashoffset: 0; stroke: #808080; stroke-opacity: 0.8"/>
     </g>
     <g id="text_8">
      <!-- 0.92 -->
      <g transform="translate(461.636 328.664475) scale(0.12 -0.12)">
       <defs>
        <path id="DejaVuSans-Bold-32" d="M 1844 884 
L 3897 884 
L 3897 0 
L 506 0 
L 506 884 
L 2209 2388 
Q 2438 2594 2547 2791 
Q 2656 2988 2656 3200 
Q 2656 3528 2436 3728 
Q 2216 3928 1850 3928 
Q 1569 3928 1234 3808 
Q 900 3688 519 3450 
L 519 4475 
Q 925 4609 1322 4679 
Q 1719 4750 2100 4750 
Q 2938 4750 3402 4381 
Q 3866 4013 3866 3353 
Q 3866 2972 3669 2642 
Q 3472 2313 2841 1759 
L 1844 884 
z
" transform="scale(0.015625)"/>
       </defs>
       <use xlink:href="#DejaVuSans-Bold-30"/>
       <use xlink:href="#DejaVuSans-Bold-2e" x="69.580078"/>
       <use xlink:href="#DejaVuSans-Bold-39" x="107.568359"/>
       <use xlink:href="#DejaVuSans-Bold-32" x="177.148438"/>
      </g>
     </g>
    </g>
   </g>
   <g id="line2d_9">
    <path d="M 384.003183 331.1601 
L 152.998217 190.136899 
L 203.175525 385.273654 
L 384.003183 331.1601 
" clip-path="url(#p6563d83a4e)" style="fill: none; stroke-dasharray: 7.4,3.2; stroke-dashoffset: 0; stroke: #808080; stroke-width: 2"/>
    <defs>
     <path id="mee260f688c" d="M 0 4 
C 1.060812 4 2.078319 3.578535 2.828427 2.828427 
C 3.578535 2.078319 4 1.060812 4 0 
C 4 -1.060812 3.578535 -2.078319 2.828427 -2.828427 
C 2.078319 -3.578535 1.060812 -4 0 -4 
C -1.060812 -4 -2.078319 -3.578535 -2.828427 -2.828427 
C -3.578535 -2.078319 -4 -1.060812 -4 0 
C -4 1.060812 -3.578535 2.078319 -2.828427 2.828427 
C -2.078319 3.578535 -1.060812 4 0 4 
z
" style="stroke: #808080"/>
    </defs>
    <g clip-path="url(#p6563d83a4e)">
     <use xlink:href="#mee260f688c" x="384.003183" y="331.1601" style="fill: #808080; stroke: #808080"/>
     <use xlink:href="#mee260f688c" x="152.998217" y="190.136899" style="fill: #808080; stroke: #808080"/>
     <use xlink:href="#mee260f688c" x="203.175525" y="385.273654" style="fill: #808080; stroke: #808080"/>
     <use xlink:href="#mee260f688c" x="384.003183" y="331.1601" style="fill: #808080; stroke: #808080"/>
    </g>
   </g>
   <g id="line2d_10">
    <path d="M 406.724983 331.1601 
L 141.637317 170.459243 
L 188.027658 411.510529 
L 406.724983 331.1601 
" clip-path="url(#p6563d83a4e)" style="fill: none; stroke-dasharray: 7.4,3.2; stroke-dashoffset: 0; stroke: #1f77b4; stroke-width: 2"/>
    <defs>
     <path id="m8eec51054d" d="M -4 4 
L 4 4 
L 4 -4 
L -4 -4 
z
" style="stroke: #1f77b4; stroke-linejoin: miter"/>
    </defs>
    <g clip-path="url(#p6563d83a4e)">
     <use xlink:href="#m8eec51054d" x="406.724983" y="331.1601" style="fill: #1f77b4; stroke: #1f77b4; stroke-linejoin: miter"/>
     <use xlink:href="#m8eec51054d" x="141.637317" y="170.459243" style="fill: #1f77b4; stroke: #1f77b4; stroke-linejoin: miter"/>
     <use xlink:href="#m8eec51054d" x="188.027658" y="411.510529" style="fill: #1f77b4; stroke: #1f77b4; stroke-linejoin: miter"/>
     <use xlink:href="#m8eec51054d" x="406.724983" y="331.1601" style="fill: #1f77b4; stroke: #1f77b4; stroke-linejoin: miter"/>
    </g>
   </g>
   <g id="line2d_11">
    <path d="M 425.659817 331.1601 
L 133.116642 155.701 
L 176.666758 431.188185 
L 425.659817 331.1601 
" clip-path="url(#p6563d83a4e)" style="fill: none; stroke: #d62728; stroke-width: 5; stroke-linecap: square"/>
    <defs>
     <path id="m7267e649ac" d="M 0 -7 
L -1.571598 -2.163119 
L -6.657396 -2.163119 
L -2.542899 0.826238 
L -4.114497 5.663119 
L -0 2.673762 
L 4.114497 5.663119 
L 2.542899 0.826238 
L 6.657396 -2.163119 
L 1.571598 -2.163119 
z
" style="stroke: #d62728; stroke-linejoin: bevel"/>
    </defs>
    <g clip-path="url(#p6563d83a4e)">
     <use xlink:href="#m7267e649ac" x="425.659817" y="331.1601" style="fill: #d62728; stroke: #d62728; stroke-linejoin: bevel"/>
     <use xlink:href="#m7267e649ac" x="133.116642" y="155.701" style="fill: #d62728; stroke: #d62728; stroke-linejoin: bevel"/>
     <use xlink:href="#m7267e649ac" x="176.666758" y="431.188185" style="fill: #d62728; stroke: #d62728; stroke-linejoin: bevel"/>
     <use xlink:href="#m7267e649ac" x="425.659817" y="331.1601" style="fill: #d62728; stroke: #d62728; stroke-linejoin: bevel"/>
    </g>
   </g>
   <g id="patch_3">
    <path d="M 461.636 331.1601 
C 461.636 301.322106 455.758566 271.774248 444.34006 244.207536 
C 432.921554 216.640824 416.184037 191.59136 395.085389 170.492711 
C 373.98674 149.394063 348.937276 132.656546 321.370564 121.23804 
C 293.803852 109.819534 264.255994 103.9421 234.418 103.9421 
C 204.580006 103.9421 175.032148 109.819534 147.465436 121.23804 
C 119.898724 132.656546 94.84926 149.394063 73.750611 170.492711 
C 52.651963 191.59136 35.914446 216.640824 24.49594 244.207536 
C 13.077434 271.774248 7.2 301.322106 7.2 331.1601 
C 7.2 360.998094 13.077434 390.545952 24.49594 418.112664 
C 35.914446 445.679376 52.651963 470.72884 73.750611 491.827489 
C 94.84926 512.926137 119.898724 529.663654 147.465436 541.08216 
C 175.032148 552.500666 204.580006 558.3781 234.418 558.3781 
C 264.255994 558.3781 293.803852 552.500666 321.370564 541.08216 
C 348.937276 529.663654 373.98674 512.926137 395.085389 491.827489 
C 416.184037 470.72884 432.921554 445.679376 444.34006 418.112664 
C 455.758566 390.545952 461.636 360.998094 461.636 331.1601 
" style="fill: none; stroke: #000000; stroke-width: 0.8; stroke-linejoin: miter; stroke-linecap: square"/>
   </g>
   <g id="text_9">
    <!-- ORAD-3D Dataset (Large-scale) -->
    <g transform="translate(21.99925 25.43625) scale(0.24 -0.24)">
     <defs>
      <path id="DejaVuSans-Bold-52" d="M 2297 2597 
Q 2675 2597 2839 2737 
Q 3003 2878 3003 3200 
Q 3003 3519 2839 3656 
Q 2675 3794 2297 3794 
L 1791 3794 
L 1791 2597 
L 2297 2597 
z
M 1791 1766 
L 1791 0 
L 588 0 
L 588 4666 
L 2425 4666 
Q 3347 4666 3776 4356 
Q 4206 4047 4206 3378 
Q 4206 2916 3982 2619 
Q 3759 2322 3309 2181 
Q 3556 2125 3751 1926 
Q 3947 1728 4147 1325 
L 4800 0 
L 3519 0 
L 2950 1159 
Q 2778 1509 2601 1637 
Q 2425 1766 2131 1766 
L 1791 1766 
z
" transform="scale(0.015625)"/>
      <path id="DejaVuSans-Bold-41" d="M 3419 850 
L 1538 850 
L 1241 0 
L 31 0 
L 1759 4666 
L 3194 4666 
L 4922 0 
L 3713 0 
L 3419 850 
z
M 1838 1716 
L 3116 1716 
L 2478 3572 
L 1838 1716 
z
" transform="scale(0.015625)"/>
      <path id="DejaVuSans-Bold-44" d="M 1791 3756 
L 1791 909 
L 2222 909 
Q 2959 909 3348 1275 
Q 3738 1641 3738 2338 
Q 3738 3031 3350 3393 
Q 2963 3756 2222 3756 
L 1791 3756 
z
M 588 4666 
L 1856 4666 
Q 2919 4666 3439 4514 
Q 3959 4363 4331 4000 
Q 4659 3684 4818 3271 
Q 4978 2859 4978 2338 
Q 4978 1809 4818 1395 
Q 4659 981 4331 666 
Q 3956 303 3431 151 
Q 2906 0 1856 0 
L 588 0 
L 588 4666 
z
" transform="scale(0.015625)"/>
      <path id="DejaVuSans-Bold-2d" d="M 347 2297 
L 2309 2297 
L 2309 1388 
L 347 1388 
L 347 2297 
z
" transform="scale(0.015625)"/>
      <path id="DejaVuSans-Bold-74" d="M 1759 4494 
L 1759 3500 
L 2913 3500 
L 2913 2700 
L 1759 2700 
L 1759 1216 
Q 1759 972 1856 886 
Q 1953 800 2241 800 
L 2816 800 
L 2816 0 
L 1856 0 
Q 1194 0 917 276 
Q 641 553 641 1216 
L 641 2700 
L 84 2700 
L 84 3500 
L 641 3500 
L 641 4494 
L 1759 4494 
z
" transform="scale(0.015625)"/>
      <path id="DejaVuSans-Bold-28" d="M 2413 -844 
L 1484 -844 
Q 1006 -72 778 623 
Q 550 1319 550 2003 
Q 550 2688 779 3389 
Q 1009 4091 1484 4856 
L 2413 4856 
Q 2013 4116 1813 3408 
Q 1613 2700 1613 2009 
Q 1613 1319 1811 609 
Q 2009 -100 2413 -844 
z
" transform="scale(0.015625)"/>
      <path id="DejaVuSans-Bold-4c" d="M 588 4666 
L 1791 4666 
L 1791 909 
L 3903 909 
L 3903 0 
L 588 0 
L 588 4666 
z
" transform="scale(0.015625)"/>
      <path id="DejaVuSans-Bold-67" d="M 2919 594 
Q 2688 288 2409 144 
Q 2131 0 1766 0 
Q 1125 0 706 504 
Q 288 1009 288 1791 
Q 288 2575 706 3076 
Q 1125 3578 1766 3578 
Q 2131 3578 2409 3434 
Q 2688 3291 2919 2981 
L 2919 3500 
L 4044 3500 
L 4044 353 
Q 4044 -491 3511 -936 
Q 2978 -1381 1966 -1381 
Q 1638 -1381 1331 -1331 
Q 1025 -1281 716 -1178 
L 716 -306 
Q 1009 -475 1290 -558 
Q 1572 -641 1856 -641 
Q 2406 -641 2662 -400 
Q 2919 -159 2919 353 
L 2919 594 
z
M 2181 2772 
Q 1834 2772 1640 2515 
Q 1447 2259 1447 1791 
Q 1447 1309 1634 1061 
Q 1822 813 2181 813 
Q 2531 813 2725 1069 
Q 2919 1325 2919 1791 
Q 2919 2259 2725 2515 
Q 2531 2772 2181 2772 
z
" transform="scale(0.015625)"/>
      <path id="DejaVuSans-Bold-29" d="M 513 -844 
Q 913 -100 1113 609 
Q 1313 1319 1313 2009 
Q 1313 2700 1113 3408 
Q 913 4116 513 4856 
L 1441 4856 
Q 1916 4091 2145 3389 
Q 2375 2688 2375 2003 
Q 2375 1319 2147 623 
Q 1919 -72 1441 -844 
L 513 -844 
z
" transform="scale(0.015625)"/>
     </defs>
     <use xlink:href="#DejaVuSans-Bold-4f"/>
     <use xlink:href="#DejaVuSans-Bold-52" x="85.009766"/>
     <use xlink:href="#DejaVuSans-Bold-41" x="162.011719"/>
     <use xlink:href="#DejaVuSans-Bold-44" x="239.404297"/>
     <use xlink:href="#DejaVuSans-Bold-2d" x="324.287109"/>
     <use xlink:href="#DejaVuSans-Bold-33" x="365.791016"/>
     <use xlink:href="#DejaVuSans-Bold-44" x="435.371094"/>
     <use xlink:href="#DejaVuSans-Bold-20" x="518.378906"/>
     <use xlink:href="#DejaVuSans-Bold-44" x="553.193359"/>
     <use xlink:href="#DejaVuSans-Bold-61" x="636.201172"/>
     <use xlink:href="#DejaVuSans-Bold-74" x="703.681641"/>
     <use xlink:href="#DejaVuSans-Bold-61" x="751.484375"/>
     <use xlink:href="#DejaVuSans-Bold-73" x="818.964844"/>
     <use xlink:href="#DejaVuSans-Bold-65" x="878.486328"/>
     <use xlink:href="#DejaVuSans-Bold-74" x="946.308594"/>
     <use xlink:href="#DejaVuSans-Bold-20" x="994.111328"/>
     <use xlink:href="#DejaVuSans-Bold-28" x="1028.925781"/>
     <use xlink:href="#DejaVuSans-Bold-4c" x="1074.628906"/>
     <use xlink:href="#DejaVuSans-Bold-61" x="1138.349609"/>
     <use xlink:href="#DejaVuSans-Bold-72" x="1205.830078"/>
     <use xlink:href="#DejaVuSans-Bold-67" x="1255.146484"/>
     <use xlink:href="#DejaVuSans-Bold-65" x="1326.728516"/>
     <use xlink:href="#DejaVuSans-Bold-2d" x="1394.550781"/>
     <use xlink:href="#DejaVuSans-Bold-73" x="1436.054688"/>
     <use xlink:href="#DejaVuSans-Bold-63" x="1495.576172"/>
     <use xlink:href="#DejaVuSans-Bold-61" x="1554.853516"/>
     <use xlink:href="#DejaVuSans-Bold-6c" x="1622.333984"/>
     <use xlink:href="#DejaVuSans-Bold-65" x="1656.611328"/>
     <use xlink:href="#DejaVuSans-Bold-29" x="1724.433594"/>
    </g>
    <!-- mIoU Comparison -->
    <g transform="translate(115.079875 52.4985) scale(0.24 -0.24)">
     <defs>
      <path id="DejaVuSans-Bold-6d" d="M 3781 2919 
Q 3994 3244 4286 3414 
Q 4578 3584 4928 3584 
Q 5531 3584 5847 3212 
Q 6163 2841 6163 2131 
L 6163 0 
L 5038 0 
L 5038 1825 
Q 5041 1866 5042 1909 
Q 5044 1953 5044 2034 
Q 5044 2406 4934 2573 
Q 4825 2741 4581 2741 
Q 4263 2741 4089 2478 
Q 3916 2216 3909 1719 
L 3909 0 
L 2784 0 
L 2784 1825 
Q 2784 2406 2684 2573 
Q 2584 2741 2328 2741 
Q 2006 2741 1831 2477 
Q 1656 2213 1656 1722 
L 1656 0 
L 531 0 
L 531 3500 
L 1656 3500 
L 1656 2988 
Q 1863 3284 2130 3434 
Q 2397 3584 2719 3584 
Q 3081 3584 3359 3409 
Q 3638 3234 3781 2919 
z
" transform="scale(0.015625)"/>
      <path id="DejaVuSans-Bold-49" d="M 588 4666 
L 1791 4666 
L 1791 0 
L 588 0 
L 588 4666 
z
" transform="scale(0.015625)"/>
      <path id="DejaVuSans-Bold-43" d="M 4288 256 
Q 3956 84 3597 -3 
Q 3238 -91 2847 -91 
Q 1681 -91 1000 561 
Q 319 1213 319 2328 
Q 319 3447 1000 4098 
Q 1681 4750 2847 4750 
Q 3238 4750 3597 4662 
Q 3956 4575 4288 4403 
L 4288 3438 
Q 3953 3666 3628 3772 
Q 3303 3878 2944 3878 
Q 2300 3878 1931 3465 
Q 1563 3053 1563 2328 
Q 1563 1606 1931 1193 
Q 2300 781 2944 781 
Q 3303 781 3628 887 
Q 3953 994 4288 1222 
L 4288 256 
z
" transform="scale(0.015625)"/>
      <path id="DejaVuSans-Bold-70" d="M 1656 506 
L 1656 -1331 
L 538 -1331 
L 538 3500 
L 1656 3500 
L 1656 2988 
Q 1888 3294 2169 3439 
Q 2450 3584 2816 3584 
Q 3463 3584 3878 3070 
Q 4294 2556 4294 1747 
Q 4294 938 3878 423 
Q 3463 -91 2816 -91 
Q 2450 -91 2169 54 
Q 1888 200 1656 506 
z
M 2400 2772 
Q 2041 2772 1848 2508 
Q 1656 2244 1656 1747 
Q 1656 1250 1848 986 
Q 2041 722 2400 722 
Q 2759 722 2948 984 
Q 3138 1247 3138 1747 
Q 3138 2247 2948 2509 
Q 2759 2772 2400 2772 
z
" transform="scale(0.015625)"/>
      <path id="DejaVuSans-Bold-69" d="M 538 3500 
L 1656 3500 
L 1656 0 
L 538 0 
L 538 3500 
z
M 538 4863 
L 1656 4863 
L 1656 3950 
L 538 3950 
L 538 4863 
z
" transform="scale(0.015625)"/>
     </defs>
     <use xlink:href="#DejaVuSans-Bold-6d"/>
     <use xlink:href="#DejaVuSans-Bold-49" x="104.199219"/>
     <use xlink:href="#DejaVuSans-Bold-6f" x="141.40625"/>
     <use xlink:href="#DejaVuSans-Bold-55" x="210.107422"/>
     <use xlink:href="#DejaVuSans-Bold-20" x="291.308594"/>
     <use xlink:href="#DejaVuSans-Bold-43" x="326.123047"/>
     <use xlink:href="#DejaVuSans-Bold-6f" x="399.511719"/>
     <use xlink:href="#DejaVuSans-Bold-6d" x="468.212891"/>
     <use xlink:href="#DejaVuSans-Bold-70" x="572.412109"/>
     <use xlink:href="#DejaVuSans-Bold-61" x="643.994141"/>
     <use xlink:href="#DejaVuSans-Bold-72" x="711.474609"/>
     <use xlink:href="#DejaVuSans-Bold-69" x="760.791016"/>
     <use xlink:href="#DejaVuSans-Bold-73" x="795.068359"/>
     <use xlink:href="#DejaVuSans-Bold-6f" x="854.589844"/>
     <use xlink:href="#DejaVuSans-Bold-6e" x="923.291016"/>
    </g>
   </g>
   <g id="legend_1">
    <g id="line2d_12">
     <path d="M 26.03925 610.716 
L 36.03925 610.716 
L 46.03925 610.716 
" style="fill: none; stroke-dasharray: 7.4,3.2; stroke-dashoffset: 0; stroke: #808080; stroke-width: 2"/>
     <g>
      <use xlink:href="#mee260f688c" x="36.03925" y="610.716" style="fill: #808080; stroke: #808080"/>
     </g>
    </g>
    <g id="text_10">
     <!-- Off-Net -->
     <g transform="translate(54.03925 614.216) scale(0.16 -0.16)">
      <defs>
       <path id="DejaVuSans-Bold-66" d="M 2841 4863 
L 2841 4128 
L 2222 4128 
Q 1984 4128 1890 4042 
Q 1797 3956 1797 3744 
L 1797 3500 
L 2753 3500 
L 2753 2700 
L 1797 2700 
L 1797 0 
L 678 0 
L 678 2700 
L 122 2700 
L 122 3500 
L 678 3500 
L 678 3744 
Q 678 4316 997 4589 
Q 1316 4863 1984 4863 
L 2841 4863 
z
" transform="scale(0.015625)"/>
       <path id="DejaVuSans-Bold-4e" d="M 588 4666 
L 1931 4666 
L 3628 1466 
L 3628 4666 
L 4769 4666 
L 4769 0 
L 3425 0 
L 1728 3200 
L 1728 0 
L 588 0 
L 588 4666 
z
" transform="scale(0.015625)"/>
      </defs>
      <use xlink:href="#DejaVuSans-Bold-4f"/>
      <use xlink:href="#DejaVuSans-Bold-66" x="85.009766"/>
      <use xlink:href="#DejaVuSans-Bold-66" x="128.515625"/>
      <use xlink:href="#DejaVuSans-Bold-2d" x="170.271484"/>
      <use xlink:href="#DejaVuSans-Bold-4e" x="211.775391"/>
      <use xlink:href="#DejaVuSans-Bold-65" x="295.466797"/>
      <use xlink:href="#DejaVuSans-Bold-74" x="363.289062"/>
     </g>
    </g>
    <g id="line2d_13">
     <path d="M 139.81175 610.716 
L 149.81175 610.716 
L 159.81175 610.716 
" style="fill: none; stroke-dasharray: 7.4,3.2; stroke-dashoffset: 0; stroke: #1f77b4; stroke-width: 2"/>
     <g>
      <use xlink:href="#m8eec51054d" x="149.81175" y="610.716" style="fill: #1f77b4; stroke: #1f77b4; stroke-linejoin: miter"/>
     </g>
    </g>
    <g id="text_11">
     <!-- M2F2-Net -->
     <g transform="translate(167.81175 614.216) scale(0.16 -0.16)">
      <defs>
       <path id="DejaVuSans-Bold-4d" d="M 588 4666 
L 2119 4666 
L 3181 2169 
L 4250 4666 
L 5778 4666 
L 5778 0 
L 4641 0 
L 4641 3413 
L 3566 897 
L 2803 897 
L 1728 3413 
L 1728 0 
L 588 0 
L 588 4666 
z
" transform="scale(0.015625)"/>
       <path id="DejaVuSans-Bold-46" d="M 588 4666 
L 3834 4666 
L 3834 3756 
L 1791 3756 
L 1791 2888 
L 3713 2888 
L 3713 1978 
L 1791 1978 
L 1791 0 
L 588 0 
L 588 4666 
z
" transform="scale(0.015625)"/>
      </defs>
      <use xlink:href="#DejaVuSans-Bold-4d"/>
      <use xlink:href="#DejaVuSans-Bold-32" x="99.511719"/>
      <use xlink:href="#DejaVuSans-Bold-46" x="169.091797"/>
      <use xlink:href="#DejaVuSans-Bold-32" x="237.402344"/>
      <use xlink:href="#DejaVuSans-Bold-2d" x="306.982422"/>
      <use xlink:href="#DejaVuSans-Bold-4e" x="348.486328"/>
      <use xlink:href="#DejaVuSans-Bold-65" x="432.177734"/>
      <use xlink:href="#DejaVuSans-Bold-74" x="500"/>
     </g>
    </g>
    <g id="line2d_14">
     <path d="M 275.45925 610.716 
L 285.45925 610.716 
L 295.45925 610.716 
" style="fill: none; stroke: #d62728; stroke-width: 5; stroke-linecap: square"/>
     <g>
      <use xlink:href="#m7267e649ac" x="285.45925" y="610.716" style="fill: #d62728; stroke: #d62728; stroke-linejoin: bevel"/>
     </g>
    </g>
    <g id="text_12">
     <!-- OT-Drive (Ours) -->
     <g transform="translate(303.45925 614.216) scale(0.16 -0.16)">
      <defs>
       <path id="DejaVuSans-Bold-54" d="M 31 4666 
L 4331 4666 
L 4331 3756 
L 2784 3756 
L 2784 0 
L 1581 0 
L 1581 3756 
L 31 3756 
L 31 4666 
z
" transform="scale(0.015625)"/>
       <path id="DejaVuSans-Bold-75" d="M 500 1363 
L 500 3500 
L 1625 3500 
L 1625 3150 
Q 1625 2866 1622 2436 
Q 1619 2006 1619 1863 
Q 1619 1441 1641 1255 
Q 1663 1069 1716 984 
Q 1784 875 1895 815 
Q 2006 756 2150 756 
Q 2500 756 2700 1025 
Q 2900 1294 2900 1772 
L 2900 3500 
L 4019 3500 
L 4019 0 
L 2900 0 
L 2900 506 
Q 2647 200 2364 54 
Q 2081 -91 1741 -91 
Q 1134 -91 817 281 
Q 500 653 500 1363 
z
" transform="scale(0.015625)"/>
      </defs>
      <use xlink:href="#DejaVuSans-Bold-4f"/>
      <use xlink:href="#DejaVuSans-Bold-54" x="85.009766"/>
      <use xlink:href="#DejaVuSans-Bold-2d" x="138.472656"/>
      <use xlink:href="#DejaVuSans-Bold-44" x="179.976562"/>
      <use xlink:href="#DejaVuSans-Bold-72" x="262.984375"/>
      <use xlink:href="#DejaVuSans-Bold-69" x="312.300781"/>
      <use xlink:href="#DejaVuSans-Bold-76" x="346.578125"/>
      <use xlink:href="#DejaVuSans-Bold-65" x="411.763672"/>
      <use xlink:href="#DejaVuSans-Bold-20" x="479.585938"/>
      <use xlink:href="#DejaVuSans-Bold-28" x="514.400391"/>
      <use xlink:href="#DejaVuSans-Bold-4f" x="560.103516"/>
      <use xlink:href="#DejaVuSans-Bold-75" x="645.113281"/>
      <use xlink:href="#DejaVuSans-Bold-72" x="716.304688"/>
      <use xlink:href="#DejaVuSans-Bold-73" x="765.621094"/>
      <use xlink:href="#DejaVuSans-Bold-29" x="825.142578"/>
     </g>
    </g>
   </g>
  </g>
 </g>
 <defs>
  <clipPath id="p6563d83a4e">
   <path d="M 461.636 331.1601 
C 461.636 301.322106 455.758566 271.774248 444.34006 244.207536 
C 432.921554 216.640824 416.184037 191.59136 395.085389 170.492711 
C 373.98674 149.394063 348.937276 132.656546 321.370564 121.23804 
C 293.803852 109.819534 264.255994 103.9421 234.418 103.9421 
C 204.580006 103.9421 175.032148 109.819534 147.465436 121.23804 
C 119.898724 132.656546 94.84926 149.394063 73.750611 170.492711 
C 52.651963 191.59136 35.914446 216.640824 24.49594 244.207536 
C 13.077434 271.774248 7.2 301.322106 7.2 331.1601 
C 7.2 360.998094 13.077434 390.545952 24.49594 418.112664 
C 35.914446 445.679376 52.651963 470.72884 73.750611 491.827489 
C 94.84926 512.926137 119.898724 529.663654 147.465436 541.08216 
C 175.032148 552.500666 204.580006 558.3781 234.418 558.3781 
C 264.255994 558.3781 293.803852 552.500666 321.370564 541.08216 
C 348.937276 529.663654 373.98674 512.926137 395.085389 491.827489 
C 416.184037 470.72884 432.921554 445.679376 444.34006 418.112664 
C 455.758566 390.545952 461.636 360.998094 461.636 331.1601 
M 234.418 331.1601 
C 234.418 331.1601 234.418 331.1601 234.418 331.1601 
C 234.418 331.1601 234.418 331.1601 234.418 331.1601 
C 234.418 331.1601 234.418 331.1601 234.418 331.1601 
C 234.418 331.1601 234.418 331.1601 234.418 331.1601 
C 234.418 331.1601 234.418 331.1601 234.418 331.1601 
C 234.418 331.1601 234.418 331.1601 234.418 331.1601 
C 234.418 331.1601 234.418 331.1601 234.418 331.1601 
C 234.418 331.1601 234.418 331.1601 234.418 331.1601 
C 234.418 331.1601 234.418 331.1601 234.418 331.1601 
C 234.418 331.1601 234.418 331.1601 234.418 331.1601 
C 234.418 331.1601 234.418 331.1601 234.418 331.1601 
C 234.418 331.1601 234.418 331.1601 234.418 331.1601 
C 234.418 331.1601 234.418 331.1601 234.418 331.1601 
C 234.418 331.1601 234.418 331.1601 234.418 331.1601 
C 234.418 331.1601 234.418 331.1601 234.418 331.1601 
C 234.418 331.1601 234.418 331.1601 234.418 331.1601 
z
"/>
  </clipPath>
 </defs>
</svg>
