<?xml version="1.0" encoding="utf-8" standalone="no"?>
<!DOCTYPE svg PUBLIC "-//W3C//DTD SVG 1.1//EN"
  "http://www.w3.org/Graphics/SVG/1.1/DTD/svg11.dtd">
<svg xmlns:xlink="http://www.w3.org/1999/xlink" width="515.10725pt" height="628.556pt" viewBox="0 0 515.10725 628.556" xmlns="http://www.w3.org/2000/svg" version="1.1">
 <metadata>
  <rdf:RDF xmlns:dc="http://purl.org/dc/elements/1.1/" xmlns:cc="http://creativecommons.org/ns#" xmlns:rdf="http://www.w3.org/1999/02/22-rdf-syntax-ns#">
   <cc:Work>
    <dc:type rdf:resource="http://purl.org/dc/dcmitype/StillImage"/>
    <dc:date>2025-12-09T11:46:21.132912</dc:date>
    <dc:format>image/svg+xml</dc:format>
    <dc:creator>
     <cc:Agent>
      <dc:title>Matplotlib v3.9.0, https://matplotlib.org/</dc:title>
     </cc:Agent>
    </dc:creator>
   </cc:Work>
  </rdf:RDF>
 </metadata>
 <defs>
  <style type="text/css">*{stroke-linejoin: round; stroke-linecap: butt}</style>
 </defs>
 <g id="figure_1">
  <g id="patch_1">
   <path d="M 0 628.556 
L 515.10725 628.556 
L 515.10725 0 
L 0 0 
z
" style="fill: #ffffff"/>
  </g>
  <g id="axes_1">
   <g id="patch_2">
    <path d="M 461.636 330.9726 
C 461.636 301.134606 455.758566 271.586748 444.34006 244.020036 
C 432.921554 216.453324 416.184037 191.40386 395.085389 170.305211 
C 373.98674 149.206563 348.937276 132.469046 321.370564 121.05054 
C 293.803852 109.632034 264.255994 103.7546 234.418 103.7546 
C 204.580006 103.7546 175.032148 109.632034 147.465436 121.05054 
C 119.898724 132.469046 94.84926 149.206563 73.750611 170.305211 
C 52.651963 191.40386 35.914446 216.453324 24.49594 244.020036 
C 13.077434 271.586748 7.2 301.134606 7.2 330.9726 
C 7.2 360.810594 13.077434 390.358452 24.49594 417.925164 
C 35.914446 445.491876 52.651963 470.54134 73.750611 491.639989 
C 94.84926 512.738637 119.898724 529.476154 147.465436 540.89466 
C 175.032148 552.313166 204.580006 558.1906 234.418 558.1906 
C 264.255994 558.1906 293.803852 552.313166 321.370564 540.89466 
C 348.937276 529.476154 373.98674 512.738637 395.085389 491.639989 
C 416.184037 470.54134 432.921554 445.491876 444.34006 417.925164 
C 455.758566 390.358452 461.636 360.810594 461.636 330.9726 
M 234.418 330.9726 
C 234.418 330.9726 234.418 330.9726 234.418 330.9726 
C 234.418 330.9726 234.418 330.9726 234.418 330.9726 
C 234.418 330.9726 234.418 330.9726 234.418 330.9726 
C 234.418 330.9726 234.418 330.9726 234.418 330.9726 
C 234.418 330.9726 234.418 330.9726 234.418 330.9726 
C 234.418 330.9726 234.418 330.9726 234.418 330.9726 
C 234.418 330.9726 234.418 330.9726 234.418 330.9726 
C 234.418 330.9726 234.418 330.9726 234.418 330.9726 
C 234.418 330.9726 234.418 330.9726 234.418 330.9726 
C 234.418 330.9726 234.418 330.9726 234.418 330.9726 
C 234.418 330.9726 234.418 330.9726 234.418 330.9726 
C 234.418 330.9726 234.418 330.9726 234.418 330.9726 
C 234.418 330.9726 234.418 330.9726 234.418 330.9726 
C 234.418 330.9726 234.418 330.9726 234.418 330.9726 
C 234.418 330.9726 234.418 330.9726 234.418 330.9726 
C 234.418 330.9726 234.418 330.9726 234.418 330.9726 
z
" style="fill: #ffffff"/>
   </g>
   <g id="matplotlib.axis_1">
    <g id="xtick_1">
     <g id="line2d_1">
      <path d="M 234.418 330.9726 
L 461.636 330.9726 
" clip-path="url(#pfd540fb505)" style="fill: none; stroke-dasharray: 1,1.65; stroke-dashoffset: 0; stroke: #808080; stroke-opacity: 0.8"/>
     </g>
     <g id="text_1">
      <!-- Overall -->
      <g transform="translate(443.36475 335.3876) scale(0.16 -0.16)">
       <defs>
        <path id="DejaVuSans-Bold-4f" d="M 2719 3878 
Q 2169 3878 1866 3472 
Q 1563 3066 1563 2328 
Q 1563 1594 1866 1187 
Q 2169 781 2719 781 
Q 3272 781 3575 1187 
Q 3878 1594 3878 2328 
Q 3878 3066 3575 3472 
Q 3272 3878 2719 3878 
z
M 2719 4750 
Q 3844 4750 4481 4106 
Q 5119 3463 5119 2328 
Q 5119 1197 4481 553 
Q 3844 -91 2719 -91 
Q 1597 -91 958 553 
Q 319 1197 319 2328 
Q 319 3463 958 4106 
Q 1597 4750 2719 4750 
z
" transform="scale(0.015625)"/>
        <path id="DejaVuSans-Bold-76" d="M 97 3500 
L 1216 3500 
L 2088 1081 
L 2956 3500 
L 4078 3500 
L 2700 0 
L 1472 0 
L 97 3500 
z
" transform="scale(0.015625)"/>
        <path id="DejaVuSans-Bold-65" d="M 4031 1759 
L 4031 1441 
L 1416 1441 
Q 1456 1047 1700 850 
Q 1944 653 2381 653 
Q 2734 653 3104 758 
Q 3475 863 3866 1075 
L 3866 213 
Q 3469 63 3072 -14 
Q 2675 -91 2278 -91 
Q 1328 -91 801 392 
Q 275 875 275 1747 
Q 275 2603 792 3093 
Q 1309 3584 2216 3584 
Q 3041 3584 3536 3087 
Q 4031 2591 4031 1759 
z
M 2881 2131 
Q 2881 2450 2695 2645 
Q 2509 2841 2209 2841 
Q 1884 2841 1681 2658 
Q 1478 2475 1428 2131 
L 2881 2131 
z
" transform="scale(0.015625)"/>
        <path id="DejaVuSans-Bold-72" d="M 3138 2547 
Q 2991 2616 2845 2648 
Q 2700 2681 2553 2681 
Q 2122 2681 1889 2404 
Q 1656 2128 1656 1613 
L 1656 0 
L 538 0 
L 538 3500 
L 1656 3500 
L 1656 2925 
Q 1872 3269 2151 3426 
Q 2431 3584 2822 3584 
Q 2878 3584 2943 3579 
Q 3009 3575 3134 3559 
L 3138 2547 
z
" transform="scale(0.015625)"/>
        <path id="DejaVuSans-Bold-61" d="M 2106 1575 
Q 1756 1575 1579 1456 
Q 1403 1338 1403 1106 
Q 1403 894 1545 773 
Q 1688 653 1941 653 
Q 2256 653 2472 879 
Q 2688 1106 2688 1447 
L 2688 1575 
L 2106 1575 
z
M 3816 1997 
L 3816 0 
L 2688 0 
L 2688 519 
Q 2463 200 2181 54 
Q 1900 -91 1497 -91 
Q 953 -91 614 226 
Q 275 544 275 1050 
Q 275 1666 698 1953 
Q 1122 2241 2028 2241 
L 2688 2241 
L 2688 2328 
Q 2688 2594 2478 2717 
Q 2269 2841 1825 2841 
Q 1466 2841 1156 2769 
Q 847 2697 581 2553 
L 581 3406 
Q 941 3494 1303 3539 
Q 1666 3584 2028 3584 
Q 2975 3584 3395 3211 
Q 3816 2838 3816 1997 
z
" transform="scale(0.015625)"/>
        <path id="DejaVuSans-Bold-6c" d="M 538 4863 
L 1656 4863 
L 1656 0 
L 538 0 
L 538 4863 
z
" transform="scale(0.015625)"/>
       </defs>
       <use xlink:href="#DejaVuSans-Bold-4f"/>
       <use xlink:href="#DejaVuSans-Bold-76" x="85.009766"/>
       <use xlink:href="#DejaVuSans-Bold-65" x="150.195312"/>
       <use xlink:href="#DejaVuSans-Bold-72" x="218.017578"/>
       <use xlink:href="#DejaVuSans-Bold-61" x="267.333984"/>
       <use xlink:href="#DejaVuSans-Bold-6c" x="334.814453"/>
       <use xlink:href="#DejaVuSans-Bold-6c" x="369.091797"/>
      </g>
     </g>
    </g>
    <g id="xtick_2">
     <g id="line2d_2">
      <path d="M 234.418 330.9726 
L 120.809 134.19604 
" clip-path="url(#pfd540fb505)" style="fill: none; stroke-dasharray: 1,1.65; stroke-dashoffset: 0; stroke: #808080; stroke-opacity: 0.8"/>
     </g>
     <g id="text_2">
      <!-- Known Scenes -->
      <g transform="translate(48.73525 126.486684) scale(0.16 -0.16)">
       <defs>
        <path id="DejaVuSans-Bold-4b" d="M 588 4666 
L 1791 4666 
L 1791 2963 
L 3525 4666 
L 4922 4666 
L 2675 2456 
L 5153 0 
L 3647 0 
L 1791 1838 
L 1791 0 
L 588 0 
L 588 4666 
z
" transform="scale(0.015625)"/>
        <path id="DejaVuSans-Bold-6e" d="M 4056 2131 
L 4056 0 
L 2931 0 
L 2931 347 
L 2931 1631 
Q 2931 2084 2911 2256 
Q 2891 2428 2841 2509 
Q 2775 2619 2662 2680 
Q 2550 2741 2406 2741 
Q 2056 2741 1856 2470 
Q 1656 2200 1656 1722 
L 1656 0 
L 538 0 
L 538 3500 
L 1656 3500 
L 1656 2988 
Q 1909 3294 2193 3439 
Q 2478 3584 2822 3584 
Q 3428 3584 3742 3212 
Q 4056 2841 4056 2131 
z
" transform="scale(0.015625)"/>
        <path id="DejaVuSans-Bold-6f" d="M 2203 2784 
Q 1831 2784 1636 2517 
Q 1441 2250 1441 1747 
Q 1441 1244 1636 976 
Q 1831 709 2203 709 
Q 2569 709 2762 976 
Q 2956 1244 2956 1747 
Q 2956 2250 2762 2517 
Q 2569 2784 2203 2784 
z
M 2203 3584 
Q 3106 3584 3614 3096 
Q 4122 2609 4122 1747 
Q 4122 884 3614 396 
Q 3106 -91 2203 -91 
Q 1297 -91 786 396 
Q 275 884 275 1747 
Q 275 2609 786 3096 
Q 1297 3584 2203 3584 
z
" transform="scale(0.015625)"/>
        <path id="DejaVuSans-Bold-77" d="M 225 3500 
L 1313 3500 
L 1900 1088 
L 2491 3500 
L 3425 3500 
L 4013 1113 
L 4603 3500 
L 5691 3500 
L 4769 0 
L 3547 0 
L 2956 2406 
L 2369 0 
L 1147 0 
L 225 3500 
z
" transform="scale(0.015625)"/>
        <path id="DejaVuSans-Bold-20" transform="scale(0.015625)"/>
        <path id="DejaVuSans-Bold-53" d="M 3834 4519 
L 3834 3531 
Q 3450 3703 3084 3790 
Q 2719 3878 2394 3878 
Q 1963 3878 1756 3759 
Q 1550 3641 1550 3391 
Q 1550 3203 1689 3098 
Q 1828 2994 2194 2919 
L 2706 2816 
Q 3484 2659 3812 2340 
Q 4141 2022 4141 1434 
Q 4141 663 3683 286 
Q 3225 -91 2284 -91 
Q 1841 -91 1394 -6 
Q 947 78 500 244 
L 500 1259 
Q 947 1022 1364 901 
Q 1781 781 2169 781 
Q 2563 781 2772 912 
Q 2981 1044 2981 1288 
Q 2981 1506 2839 1625 
Q 2697 1744 2272 1838 
L 1806 1941 
Q 1106 2091 782 2419 
Q 459 2747 459 3303 
Q 459 4000 909 4375 
Q 1359 4750 2203 4750 
Q 2588 4750 2994 4692 
Q 3400 4634 3834 4519 
z
" transform="scale(0.015625)"/>
        <path id="DejaVuSans-Bold-63" d="M 3366 3391 
L 3366 2478 
Q 3138 2634 2908 2709 
Q 2678 2784 2431 2784 
Q 1963 2784 1702 2511 
Q 1441 2238 1441 1747 
Q 1441 1256 1702 982 
Q 1963 709 2431 709 
Q 2694 709 2930 787 
Q 3166 866 3366 1019 
L 3366 103 
Q 3103 6 2833 -42 
Q 2563 -91 2291 -91 
Q 1344 -91 809 395 
Q 275 881 275 1747 
Q 275 2613 809 3098 
Q 1344 3584 2291 3584 
Q 2566 3584 2833 3536 
Q 3100 3488 3366 3391 
z
" transform="scale(0.015625)"/>
        <path id="DejaVuSans-Bold-73" d="M 3272 3391 
L 3272 2541 
Q 2913 2691 2578 2766 
Q 2244 2841 1947 2841 
Q 1628 2841 1473 2761 
Q 1319 2681 1319 2516 
Q 1319 2381 1436 2309 
Q 1553 2238 1856 2203 
L 2053 2175 
Q 2913 2066 3209 1816 
Q 3506 1566 3506 1031 
Q 3506 472 3093 190 
Q 2681 -91 1863 -91 
Q 1516 -91 1145 -36 
Q 775 19 384 128 
L 384 978 
Q 719 816 1070 734 
Q 1422 653 1784 653 
Q 2113 653 2278 743 
Q 2444 834 2444 1013 
Q 2444 1163 2330 1236 
Q 2216 1309 1875 1350 
L 1678 1375 
Q 931 1469 631 1722 
Q 331 1975 331 2491 
Q 331 3047 712 3315 
Q 1094 3584 1881 3584 
Q 2191 3584 2531 3537 
Q 2872 3491 3272 3391 
z
" transform="scale(0.015625)"/>
       </defs>
       <use xlink:href="#DejaVuSans-Bold-4b"/>
       <use xlink:href="#DejaVuSans-Bold-6e" x="77.490234"/>
       <use xlink:href="#DejaVuSans-Bold-6f" x="148.681641"/>
       <use xlink:href="#DejaVuSans-Bold-77" x="217.382812"/>
       <use xlink:href="#DejaVuSans-Bold-6e" x="309.765625"/>
       <use xlink:href="#DejaVuSans-Bold-20" x="380.957031"/>
       <use xlink:href="#DejaVuSans-Bold-53" x="415.771484"/>
       <use xlink:href="#DejaVuSans-Bold-63" x="487.792969"/>
       <use xlink:href="#DejaVuSans-Bold-65" x="547.070312"/>
       <use xlink:href="#DejaVuSans-Bold-6e" x="614.892578"/>
       <use xlink:href="#DejaVuSans-Bold-65" x="686.083984"/>
       <use xlink:href="#DejaVuSans-Bold-73" x="753.90625"/>
      </g>
     </g>
    </g>
    <g id="xtick_3">
     <g id="line2d_3">
      <path d="M 234.418 330.9726 
L 120.809 527.74916 
" clip-path="url(#pfd540fb505)" style="fill: none; stroke-dasharray: 1,1.65; stroke-dashoffset: 0; stroke: #808080; stroke-opacity: 0.8"/>
     </g>
     <g id="text_3">
      <!-- Unknown Scenes -->
      <g style="fill: #d62728" transform="translate(18.326187 545.392266) scale(0.2 -0.2)">
       <defs>
        <path id="DejaVuSans-Bold-55" d="M 588 4666 
L 1791 4666 
L 1791 1869 
Q 1791 1291 1980 1042 
Q 2169 794 2597 794 
Q 3028 794 3217 1042 
Q 3406 1291 3406 1869 
L 3406 4666 
L 4609 4666 
L 4609 1869 
Q 4609 878 4112 393 
Q 3616 -91 2597 -91 
Q 1581 -91 1084 393 
Q 588 878 588 1869 
L 588 4666 
z
" transform="scale(0.015625)"/>
        <path id="DejaVuSans-Bold-6b" d="M 538 4863 
L 1656 4863 
L 1656 2216 
L 2944 3500 
L 4244 3500 
L 2534 1894 
L 4378 0 
L 3022 0 
L 1656 1459 
L 1656 0 
L 538 0 
L 538 4863 
z
" transform="scale(0.015625)"/>
       </defs>
       <use xlink:href="#DejaVuSans-Bold-55"/>
       <use xlink:href="#DejaVuSans-Bold-6e" x="81.201172"/>
       <use xlink:href="#DejaVuSans-Bold-6b" x="152.392578"/>
       <use xlink:href="#DejaVuSans-Bold-6e" x="218.896484"/>
       <use xlink:href="#DejaVuSans-Bold-6f" x="290.087891"/>
       <use xlink:href="#DejaVuSans-Bold-77" x="358.789062"/>
       <use xlink:href="#DejaVuSans-Bold-6e" x="451.171875"/>
       <use xlink:href="#DejaVuSans-Bold-20" x="522.363281"/>
       <use xlink:href="#DejaVuSans-Bold-53" x="557.177734"/>
       <use xlink:href="#DejaVuSans-Bold-63" x="629.199219"/>
       <use xlink:href="#DejaVuSans-Bold-65" x="688.476562"/>
       <use xlink:href="#DejaVuSans-Bold-6e" x="756.298828"/>
       <use xlink:href="#DejaVuSans-Bold-65" x="827.490234"/>
       <use xlink:href="#DejaVuSans-Bold-73" x="895.3125"/>
      </g>
     </g>
    </g>
   </g>
   <g id="matplotlib.axis_2">
    <g id="ytick_1">
     <g id="line2d_4">
      <path d="M 234.418 330.9726 
C 234.418 330.9726 234.418 330.9726 234.418 330.9726 
C 234.418 330.9726 234.418 330.9726 234.418 330.9726 
C 234.418 330.9726 234.418 330.9726 234.418 330.9726 
C 234.418 330.9726 234.418 330.9726 234.418 330.9726 
C 234.418 330.9726 234.418 330.9726 234.418 330.9726 
C 234.418 330.9726 234.418 330.9726 234.418 330.9726 
C 234.418 330.9726 234.418 330.9726 234.418 330.9726 
C 234.418 330.9726 234.418 330.9726 234.418 330.9726 
C 234.418 330.9726 234.418 330.9726 234.418 330.9726 
C 234.418 330.9726 234.418 330.9726 234.418 330.9726 
C 234.418 330.9726 234.418 330.9726 234.418 330.9726 
C 234.418 330.9726 234.418 330.9726 234.418 330.9726 
C 234.418 330.9726 234.418 330.9726 234.418 330.9726 
C 234.418 330.9726 234.418 330.9726 234.418 330.9726 
C 234.418 330.9726 234.418 330.9726 234.418 330.9726 
C 234.418 330.9726 234.418 330.9726 234.418 330.9726 
" clip-path="url(#pfd540fb505)" style="fill: none; stroke-dasharray: 1,1.65; stroke-dashoffset: 0; stroke: #808080; stroke-opacity: 0.8"/>
     </g>
     <g id="text_4">
      <!-- 0.6 -->
      <g transform="translate(234.418 328.476975) scale(0.12 -0.12)">
       <defs>
        <path id="DejaVuSans-Bold-30" d="M 2944 2338 
Q 2944 3213 2780 3570 
Q 2616 3928 2228 3928 
Q 1841 3928 1675 3570 
Q 1509 3213 1509 2338 
Q 1509 1453 1675 1090 
Q 1841 728 2228 728 
Q 2613 728 2778 1090 
Q 2944 1453 2944 2338 
z
M 4147 2328 
Q 4147 1169 3647 539 
Q 3147 -91 2228 -91 
Q 1306 -91 806 539 
Q 306 1169 306 2328 
Q 306 3491 806 4120 
Q 1306 4750 2228 4750 
Q 3147 4750 3647 4120 
Q 4147 3491 4147 2328 
z
" transform="scale(0.015625)"/>
        <path id="DejaVuSans-Bold-2e" d="M 653 1209 
L 1778 1209 
L 1778 0 
L 653 0 
L 653 1209 
z
" transform="scale(0.015625)"/>
        <path id="DejaVuSans-Bold-36" d="M 2316 2303 
Q 2000 2303 1842 2098 
Q 1684 1894 1684 1484 
Q 1684 1075 1842 870 
Q 2000 666 2316 666 
Q 2634 666 2792 870 
Q 2950 1075 2950 1484 
Q 2950 1894 2792 2098 
Q 2634 2303 2316 2303 
z
M 3803 4544 
L 3803 3681 
Q 3506 3822 3243 3889 
Q 2981 3956 2731 3956 
Q 2194 3956 1894 3657 
Q 1594 3359 1544 2772 
Q 1750 2925 1990 3001 
Q 2231 3078 2516 3078 
Q 3231 3078 3670 2659 
Q 4109 2241 4109 1563 
Q 4109 813 3618 361 
Q 3128 -91 2303 -91 
Q 1394 -91 895 523 
Q 397 1138 397 2266 
Q 397 3422 980 4083 
Q 1563 4744 2578 4744 
Q 2900 4744 3203 4694 
Q 3506 4644 3803 4544 
z
" transform="scale(0.015625)"/>
       </defs>
       <use xlink:href="#DejaVuSans-Bold-30"/>
       <use xlink:href="#DejaVuSans-Bold-2e" x="69.580078"/>
       <use xlink:href="#DejaVuSans-Bold-36" x="107.568359"/>
      </g>
     </g>
    </g>
    <g id="ytick_2">
     <g id="line2d_5">
      <path d="M 291.2225 330.9726 
C 291.2225 323.513101 289.753141 316.126137 286.898515 309.234459 
C 284.043888 302.342781 279.859509 296.080415 274.584847 290.805753 
C 269.310185 285.531091 263.047819 281.346712 256.156141 278.492085 
C 249.264463 275.637459 241.877499 274.1681 234.418 274.1681 
C 226.958501 274.1681 219.571537 275.637459 212.679859 278.492085 
C 205.788181 281.346712 199.525815 285.531091 194.251153 290.805753 
C 188.976491 296.080415 184.792112 302.342781 181.937485 309.234459 
C 179.082859 316.126137 177.6135 323.513101 177.6135 330.9726 
C 177.6135 338.432099 179.082859 345.819063 181.937485 352.710741 
C 184.792112 359.602419 188.976491 365.864785 194.251153 371.139447 
C 199.525815 376.414109 205.788181 380.598488 212.679859 383.453115 
C 219.571537 386.307741 226.958501 387.7771 234.418 387.7771 
C 241.877499 387.7771 249.264463 386.307741 256.156141 383.453115 
C 263.047819 380.598488 269.310185 376.414109 274.584847 371.139447 
C 279.859509 365.864785 284.043888 359.602419 286.898515 352.710741 
C 289.753141 345.819063 291.2225 338.432099 291.2225 330.9726 
" clip-path="url(#pfd540fb505)" style="fill: none; stroke-dasharray: 1,1.65; stroke-dashoffset: 0; stroke: #808080; stroke-opacity: 0.8"/>
     </g>
     <g id="text_5">
      <!-- 0.7 -->
      <g transform="translate(291.2225 328.476975) scale(0.12 -0.12)">
       <defs>
        <path id="DejaVuSans-Bold-37" d="M 428 4666 
L 3944 4666 
L 3944 3988 
L 2125 0 
L 953 0 
L 2675 3781 
L 428 3781 
L 428 4666 
z
" transform="scale(0.015625)"/>
       </defs>
       <use xlink:href="#DejaVuSans-Bold-30"/>
       <use xlink:href="#DejaVuSans-Bold-2e" x="69.580078"/>
       <use xlink:href="#DejaVuSans-Bold-37" x="107.568359"/>
      </g>
     </g>
    </g>
    <g id="ytick_3">
     <g id="line2d_6">
      <path d="M 348.027 330.9726 
C 348.027 316.053603 345.088283 301.279674 339.37903 287.496318 
C 333.669777 273.712962 325.301018 261.18823 314.751694 250.638906 
C 304.20237 240.089582 291.677638 231.720823 277.894282 226.01157 
C 264.110926 220.302317 249.336997 217.3636 234.418 217.3636 
C 219.499003 217.3636 204.725074 220.302317 190.941718 226.01157 
C 177.158362 231.720823 164.63363 240.089582 154.084306 250.638906 
C 143.534982 261.18823 135.166223 273.712962 129.45697 287.496318 
C 123.747717 301.279674 120.809 316.053603 120.809 330.9726 
C 120.809 345.891597 123.747717 360.665526 129.45697 374.448882 
C 135.166223 388.232238 143.534982 400.75697 154.084306 411.306294 
C 164.63363 421.855618 177.158362 430.224377 190.941718 435.93363 
C 204.725074 441.642883 219.499003 444.5816 234.418 444.5816 
C 249.336997 444.5816 264.110926 441.642883 277.894282 435.93363 
C 291.677638 430.224377 304.20237 421.855618 314.751694 411.306294 
C 325.301018 400.75697 333.669777 388.232238 339.37903 374.448882 
C 345.088283 360.665526 348.027 345.891597 348.027 330.9726 
" clip-path="url(#pfd540fb505)" style="fill: none; stroke-dasharray: 1,1.65; stroke-dashoffset: 0; stroke: #808080; stroke-opacity: 0.8"/>
     </g>
     <g id="text_6">
      <!-- 0.8 -->
      <g transform="translate(348.027 328.476975) scale(0.12 -0.12)">
       <defs>
        <path id="DejaVuSans-Bold-38" d="M 2228 2088 
Q 1891 2088 1709 1903 
Q 1528 1719 1528 1375 
Q 1528 1031 1709 848 
Q 1891 666 2228 666 
Q 2563 666 2741 848 
Q 2919 1031 2919 1375 
Q 2919 1722 2741 1905 
Q 2563 2088 2228 2088 
z
M 1350 2484 
Q 925 2613 709 2878 
Q 494 3144 494 3541 
Q 494 4131 934 4440 
Q 1375 4750 2228 4750 
Q 3075 4750 3515 4442 
Q 3956 4134 3956 3541 
Q 3956 3144 3739 2878 
Q 3522 2613 3097 2484 
Q 3572 2353 3814 2058 
Q 4056 1763 4056 1313 
Q 4056 619 3595 264 
Q 3134 -91 2228 -91 
Q 1319 -91 855 264 
Q 391 619 391 1313 
Q 391 1763 633 2058 
Q 875 2353 1350 2484 
z
M 1631 3419 
Q 1631 3141 1786 2991 
Q 1941 2841 2228 2841 
Q 2509 2841 2662 2991 
Q 2816 3141 2816 3419 
Q 2816 3697 2662 3845 
Q 2509 3994 2228 3994 
Q 1941 3994 1786 3844 
Q 1631 3694 1631 3419 
z
" transform="scale(0.015625)"/>
       </defs>
       <use xlink:href="#DejaVuSans-Bold-30"/>
       <use xlink:href="#DejaVuSans-Bold-2e" x="69.580078"/>
       <use xlink:href="#DejaVuSans-Bold-38" x="107.568359"/>
      </g>
     </g>
    </g>
    <g id="ytick_4">
     <g id="line2d_7">
      <path d="M 404.8315 330.9726 
C 404.8315 308.594104 400.423424 286.433211 391.859545 265.758177 
C 383.295665 245.083143 370.742528 226.296045 354.918541 210.472059 
C 339.094555 194.648072 320.307457 182.094935 299.632423 173.531055 
C 278.957389 164.967176 256.796496 160.5591 234.418 160.5591 
C 212.039504 160.5591 189.878611 164.967176 169.203577 173.531055 
C 148.528543 182.094935 129.741445 194.648072 113.917459 210.472059 
C 98.093472 226.296045 85.540335 245.083143 76.976455 265.758177 
C 68.412576 286.433211 64.0045 308.594104 64.0045 330.9726 
C 64.0045 353.351096 68.412576 375.511989 76.976455 396.187023 
C 85.540335 416.862057 98.093472 435.649155 113.917459 451.473141 
C 129.741445 467.297128 148.528543 479.850265 169.203577 488.414145 
C 189.878611 496.978024 212.039504 501.3861 234.418 501.3861 
C 256.796496 501.3861 278.957389 496.978024 299.632423 488.414145 
C 320.307457 479.850265 339.094555 467.297128 354.918541 451.473141 
C 370.742528 435.649155 383.295665 416.862057 391.859545 396.187023 
C 400.423424 375.511989 404.8315 353.351096 404.8315 330.9726 
" clip-path="url(#pfd540fb505)" style="fill: none; stroke-dasharray: 1,1.65; stroke-dashoffset: 0; stroke: #808080; stroke-opacity: 0.8"/>
     </g>
     <g id="text_7">
      <!-- 0.9 -->
      <g transform="translate(404.8315 328.476975) scale(0.12 -0.12)">
       <defs>
        <path id="DejaVuSans-Bold-39" d="M 641 103 
L 641 966 
Q 928 831 1190 764 
Q 1453 697 1709 697 
Q 2247 697 2547 995 
Q 2847 1294 2900 1881 
Q 2688 1725 2447 1647 
Q 2206 1569 1925 1569 
Q 1209 1569 770 1986 
Q 331 2403 331 3084 
Q 331 3838 820 4291 
Q 1309 4744 2131 4744 
Q 3044 4744 3544 4128 
Q 4044 3513 4044 2388 
Q 4044 1231 3459 570 
Q 2875 -91 1856 -91 
Q 1528 -91 1228 -42 
Q 928 6 641 103 
z
M 2125 2350 
Q 2441 2350 2600 2554 
Q 2759 2759 2759 3169 
Q 2759 3575 2600 3781 
Q 2441 3988 2125 3988 
Q 1809 3988 1650 3781 
Q 1491 3575 1491 3169 
Q 1491 2759 1650 2554 
Q 1809 2350 2125 2350 
z
" transform="scale(0.015625)"/>
       </defs>
       <use xlink:href="#DejaVuSans-Bold-30"/>
       <use xlink:href="#DejaVuSans-Bold-2e" x="69.580078"/>
       <use xlink:href="#DejaVuSans-Bold-39" x="107.568359"/>
      </g>
     </g>
    </g>
    <g id="ytick_5">
     <g id="line2d_8">
      <path d="M 461.636 330.9726 
C 461.636 301.134606 455.758566 271.586748 444.34006 244.020036 
C 432.921554 216.453324 416.184037 191.40386 395.085389 170.305211 
C 373.98674 149.206563 348.937276 132.469046 321.370564 121.05054 
C 293.803852 109.632034 264.255994 103.7546 234.418 103.7546 
C 204.580006 103.7546 175.032148 109.632034 147.465436 121.05054 
C 119.898724 132.469046 94.84926 149.206563 73.750611 170.305211 
C 52.651963 191.40386 35.914446 216.453324 24.49594 244.020036 
C 13.077434 271.586748 7.2 301.134606 7.2 330.9726 
C 7.2 360.810594 13.077434 390.358452 24.49594 417.925164 
C 35.914446 445.491876 52.651963 470.54134 73.750611 491.639989 
C 94.84926 512.738637 119.898724 529.476154 147.465436 540.89466 
C 175.032148 552.313166 204.580006 558.1906 234.418 558.1906 
C 264.255994 558.1906 293.803852 552.313166 321.370564 540.89466 
C 348.937276 529.476154 373.98674 512.738637 395.085389 491.639989 
C 416.184037 470.54134 432.921554 445.491876 444.34006 417.925164 
C 455.758566 390.358452 461.636 360.810594 461.636 330.9726 
" clip-path="url(#pfd540fb505)" style="fill: none; stroke-dasharray: 1,1.65; stroke-dashoffset: 0; stroke: #808080; stroke-opacity: 0.8"/>
     </g>
     <g id="text_8">
      <!-- 1.0 -->
      <g transform="translate(461.636 328.476975) scale(0.12 -0.12)">
       <defs>
        <path id="DejaVuSans-Bold-31" d="M 750 831 
L 1813 831 
L 1813 3847 
L 722 3622 
L 722 4441 
L 1806 4666 
L 2950 4666 
L 2950 831 
L 4013 831 
L 4013 0 
L 750 0 
L 750 831 
z
" transform="scale(0.015625)"/>
       </defs>
       <use xlink:href="#DejaVuSans-Bold-31"/>
       <use xlink:href="#DejaVuSans-Bold-2e" x="69.580078"/>
       <use xlink:href="#DejaVuSans-Bold-30" x="107.568359"/>
      </g>
     </g>
    </g>
   </g>
   <g id="line2d_9">
    <path d="M 367.908575 330.9726 
L 142.962755 172.567469 
L 210.56011 372.295678 
L 367.908575 330.9726 
" clip-path="url(#pfd540fb505)" style="fill: none; stroke-dasharray: 7.4,3.2; stroke-dashoffset: 0; stroke: #808080; stroke-width: 2"/>
    <defs>
     <path id="ma05e6322f7" d="M 0 4 
C 1.060812 4 2.078319 3.578535 2.828427 2.828427 
C 3.578535 2.078319 4 1.060812 4 0 
C 4 -1.060812 3.578535 -2.078319 2.828427 -2.828427 
C 2.078319 -3.578535 1.060812 -4 0 -4 
C -1.060812 -4 -2.078319 -3.578535 -2.828427 -2.828427 
C -3.578535 -2.078319 -4 -1.060812 -4 0 
C -4 1.060812 -3.578535 2.078319 -2.828427 2.828427 
C -2.078319 3.578535 -1.060812 4 0 4 
z
" style="stroke: #808080"/>
    </defs>
    <g clip-path="url(#pfd540fb505)">
     <use xlink:href="#ma05e6322f7" x="367.908575" y="330.9726" style="fill: #808080; stroke: #808080"/>
     <use xlink:href="#ma05e6322f7" x="142.962755" y="172.567469" style="fill: #808080; stroke: #808080"/>
     <use xlink:href="#ma05e6322f7" x="210.56011" y="372.295678" style="fill: #808080; stroke: #808080"/>
     <use xlink:href="#ma05e6322f7" x="367.908575" y="330.9726" style="fill: #808080; stroke: #808080"/>
    </g>
   </g>
   <g id="line2d_10">
    <path d="M 366.20444 330.9726 
L 145.518957 176.994942 
L 208.855975 375.247326 
L 366.20444 330.9726 
" clip-path="url(#pfd540fb505)" style="fill: none; stroke-dasharray: 7.4,3.2; stroke-dashoffset: 0; stroke: #1f77b4; stroke-width: 2"/>
    <defs>
     <path id="m8b3eed60d9" d="M -4 4 
L 4 4 
L 4 -4 
L -4 -4 
z
" style="stroke: #1f77b4; stroke-linejoin: miter"/>
    </defs>
    <g clip-path="url(#pfd540fb505)">
     <use xlink:href="#m8b3eed60d9" x="366.20444" y="330.9726" style="fill: #1f77b4; stroke: #1f77b4; stroke-linejoin: miter"/>
     <use xlink:href="#m8b3eed60d9" x="145.518957" y="176.994942" style="fill: #1f77b4; stroke: #1f77b4; stroke-linejoin: miter"/>
     <use xlink:href="#m8b3eed60d9" x="208.855975" y="375.247326" style="fill: #1f77b4; stroke: #1f77b4; stroke-linejoin: miter"/>
     <use xlink:href="#m8b3eed60d9" x="366.20444" y="330.9726" style="fill: #1f77b4; stroke: #1f77b4; stroke-linejoin: miter"/>
    </g>
   </g>
   <g id="line2d_11">
    <path d="M 430.96157 330.9726 
L 134.726102 158.301168 
L 140.12253 494.297145 
L 430.96157 330.9726 
" clip-path="url(#pfd540fb505)" style="fill: none; stroke: #d62728; stroke-width: 5; stroke-linecap: square"/>
    <defs>
     <path id="m5b125135b0" d="M 0 -7 
L -1.571598 -2.163119 
L -6.657396 -2.163119 
L -2.542899 0.826238 
L -4.114497 5.663119 
L -0 2.673762 
L 4.114497 5.663119 
L 2.542899 0.826238 
L 6.657396 -2.163119 
L 1.571598 -2.163119 
z
" style="stroke: #d62728; stroke-linejoin: bevel"/>
    </defs>
    <g clip-path="url(#pfd540fb505)">
     <use xlink:href="#m5b125135b0" x="430.96157" y="330.9726" style="fill: #d62728; stroke: #d62728; stroke-linejoin: bevel"/>
     <use xlink:href="#m5b125135b0" x="134.726102" y="158.301168" style="fill: #d62728; stroke: #d62728; stroke-linejoin: bevel"/>
     <use xlink:href="#m5b125135b0" x="140.12253" y="494.297145" style="fill: #d62728; stroke: #d62728; stroke-linejoin: bevel"/>
     <use xlink:href="#m5b125135b0" x="430.96157" y="330.9726" style="fill: #d62728; stroke: #d62728; stroke-linejoin: bevel"/>
    </g>
   </g>
   <g id="patch_3">
    <path d="M 461.636 330.9726 
C 461.636 301.134606 455.758566 271.586748 444.34006 244.020036 
C 432.921554 216.453324 416.184037 191.40386 395.085389 170.305211 
C 373.98674 149.206563 348.937276 132.469046 321.370564 121.05054 
C 293.803852 109.632034 264.255994 103.7546 234.418 103.7546 
C 204.580006 103.7546 175.032148 109.632034 147.465436 121.05054 
C 119.898724 132.469046 94.84926 149.206563 73.750611 170.305211 
C 52.651963 191.40386 35.914446 216.453324 24.49594 244.020036 
C 13.077434 271.586748 7.2 301.134606 7.2 330.9726 
C 7.2 360.810594 13.077434 390.358452 24.49594 417.925164 
C 35.914446 445.491876 52.651963 470.54134 73.750611 491.639989 
C 94.84926 512.738637 119.898724 529.476154 147.465436 540.89466 
C 175.032148 552.313166 204.580006 558.1906 234.418 558.1906 
C 264.255994 558.1906 293.803852 552.313166 321.370564 540.89466 
C 348.937276 529.476154 373.98674 512.738637 395.085389 491.639989 
C 416.184037 470.54134 432.921554 445.491876 444.34006 417.925164 
C 455.758566 390.358452 461.636 360.810594 461.636 330.9726 
" style="fill: none; stroke: #000000; stroke-width: 0.8; stroke-linejoin: miter; stroke-linecap: square"/>
   </g>
   <g id="text_9">
    <!-- ORFD Dataset (Few-shot) -->
    <g transform="translate(62.99425 25.43625) scale(0.24 -0.24)">
     <defs>
      <path id="DejaVuSans-Bold-52" d="M 2297 2597 
Q 2675 2597 2839 2737 
Q 3003 2878 3003 3200 
Q 3003 3519 2839 3656 
Q 2675 3794 2297 3794 
L 1791 3794 
L 1791 2597 
L 2297 2597 
z
M 1791 1766 
L 1791 0 
L 588 0 
L 588 4666 
L 2425 4666 
Q 3347 4666 3776 4356 
Q 4206 4047 4206 3378 
Q 4206 2916 3982 2619 
Q 3759 2322 3309 2181 
Q 3556 2125 3751 1926 
Q 3947 1728 4147 1325 
L 4800 0 
L 3519 0 
L 2950 1159 
Q 2778 1509 2601 1637 
Q 2425 1766 2131 1766 
L 1791 1766 
z
" transform="scale(0.015625)"/>
      <path id="DejaVuSans-Bold-46" d="M 588 4666 
L 3834 4666 
L 3834 3756 
L 1791 3756 
L 1791 2888 
L 3713 2888 
L 3713 1978 
L 1791 1978 
L 1791 0 
L 588 0 
L 588 4666 
z
" transform="scale(0.015625)"/>
      <path id="DejaVuSans-Bold-44" d="M 1791 3756 
L 1791 909 
L 2222 909 
Q 2959 909 3348 1275 
Q 3738 1641 3738 2338 
Q 3738 3031 3350 3393 
Q 2963 3756 2222 3756 
L 1791 3756 
z
M 588 4666 
L 1856 4666 
Q 2919 4666 3439 4514 
Q 3959 4363 4331 4000 
Q 4659 3684 4818 3271 
Q 4978 2859 4978 2338 
Q 4978 1809 4818 1395 
Q 4659 981 4331 666 
Q 3956 303 3431 151 
Q 2906 0 1856 0 
L 588 0 
L 588 4666 
z
" transform="scale(0.015625)"/>
      <path id="DejaVuSans-Bold-74" d="M 1759 4494 
L 1759 3500 
L 2913 3500 
L 2913 2700 
L 1759 2700 
L 1759 1216 
Q 1759 972 1856 886 
Q 1953 800 2241 800 
L 2816 800 
L 2816 0 
L 1856 0 
Q 1194 0 917 276 
Q 641 553 641 1216 
L 641 2700 
L 84 2700 
L 84 3500 
L 641 3500 
L 641 4494 
L 1759 4494 
z
" transform="scale(0.015625)"/>
      <path id="DejaVuSans-Bold-28" d="M 2413 -844 
L 1484 -844 
Q 1006 -72 778 623 
Q 550 1319 550 2003 
Q 550 2688 779 3389 
Q 1009 4091 1484 4856 
L 2413 4856 
Q 2013 4116 1813 3408 
Q 1613 2700 1613 2009 
Q 1613 1319 1811 609 
Q 2009 -100 2413 -844 
z
" transform="scale(0.015625)"/>
      <path id="DejaVuSans-Bold-2d" d="M 347 2297 
L 2309 2297 
L 2309 1388 
L 347 1388 
L 347 2297 
z
" transform="scale(0.015625)"/>
      <path id="DejaVuSans-Bold-68" d="M 4056 2131 
L 4056 0 
L 2931 0 
L 2931 347 
L 2931 1625 
Q 2931 2084 2911 2256 
Q 2891 2428 2841 2509 
Q 2775 2619 2662 2680 
Q 2550 2741 2406 2741 
Q 2056 2741 1856 2470 
Q 1656 2200 1656 1722 
L 1656 0 
L 538 0 
L 538 4863 
L 1656 4863 
L 1656 2988 
Q 1909 3294 2193 3439 
Q 2478 3584 2822 3584 
Q 3428 3584 3742 3212 
Q 4056 2841 4056 2131 
z
" transform="scale(0.015625)"/>
      <path id="DejaVuSans-Bold-29" d="M 513 -844 
Q 913 -100 1113 609 
Q 1313 1319 1313 2009 
Q 1313 2700 1113 3408 
Q 913 4116 513 4856 
L 1441 4856 
Q 1916 4091 2145 3389 
Q 2375 2688 2375 2003 
Q 2375 1319 2147 623 
Q 1919 -72 1441 -844 
L 513 -844 
z
" transform="scale(0.015625)"/>
     </defs>
     <use xlink:href="#DejaVuSans-Bold-4f"/>
     <use xlink:href="#DejaVuSans-Bold-52" x="85.009766"/>
     <use xlink:href="#DejaVuSans-Bold-46" x="162.011719"/>
     <use xlink:href="#DejaVuSans-Bold-44" x="230.322266"/>
     <use xlink:href="#DejaVuSans-Bold-20" x="313.330078"/>
     <use xlink:href="#DejaVuSans-Bold-44" x="348.144531"/>
     <use xlink:href="#DejaVuSans-Bold-61" x="431.152344"/>
     <use xlink:href="#DejaVuSans-Bold-74" x="498.632812"/>
     <use xlink:href="#DejaVuSans-Bold-61" x="546.435547"/>
     <use xlink:href="#DejaVuSans-Bold-73" x="613.916016"/>
     <use xlink:href="#DejaVuSans-Bold-65" x="673.4375"/>
     <use xlink:href="#DejaVuSans-Bold-74" x="741.259766"/>
     <use xlink:href="#DejaVuSans-Bold-20" x="789.0625"/>
     <use xlink:href="#DejaVuSans-Bold-28" x="823.876953"/>
     <use xlink:href="#DejaVuSans-Bold-46" x="869.580078"/>
     <use xlink:href="#DejaVuSans-Bold-65" x="933.890625"/>
     <use xlink:href="#DejaVuSans-Bold-77" x="1001.712891"/>
     <use xlink:href="#DejaVuSans-Bold-2d" x="1094.095703"/>
     <use xlink:href="#DejaVuSans-Bold-73" x="1135.599609"/>
     <use xlink:href="#DejaVuSans-Bold-68" x="1195.121094"/>
     <use xlink:href="#DejaVuSans-Bold-6f" x="1266.3125"/>
     <use xlink:href="#DejaVuSans-Bold-74" x="1335.013672"/>
     <use xlink:href="#DejaVuSans-Bold-29" x="1382.816406"/>
    </g>
    <!-- mIoU Comparison -->
    <g transform="translate(115.079875 52.311) scale(0.24 -0.24)">
     <defs>
      <path id="DejaVuSans-Bold-6d" d="M 3781 2919 
Q 3994 3244 4286 3414 
Q 4578 3584 4928 3584 
Q 5531 3584 5847 3212 
Q 6163 2841 6163 2131 
L 6163 0 
L 5038 0 
L 5038 1825 
Q 5041 1866 5042 1909 
Q 5044 1953 5044 2034 
Q 5044 2406 4934 2573 
Q 4825 2741 4581 2741 
Q 4263 2741 4089 2478 
Q 3916 2216 3909 1719 
L 3909 0 
L 2784 0 
L 2784 1825 
Q 2784 2406 2684 2573 
Q 2584 2741 2328 2741 
Q 2006 2741 1831 2477 
Q 1656 2213 1656 1722 
L 1656 0 
L 531 0 
L 531 3500 
L 1656 3500 
L 1656 2988 
Q 1863 3284 2130 3434 
Q 2397 3584 2719 3584 
Q 3081 3584 3359 3409 
Q 3638 3234 3781 2919 
z
" transform="scale(0.015625)"/>
      <path id="DejaVuSans-Bold-49" d="M 588 4666 
L 1791 4666 
L 1791 0 
L 588 0 
L 588 4666 
z
" transform="scale(0.015625)"/>
      <path id="DejaVuSans-Bold-43" d="M 4288 256 
Q 3956 84 3597 -3 
Q 3238 -91 2847 -91 
Q 1681 -91 1000 561 
Q 319 1213 319 2328 
Q 319 3447 1000 4098 
Q 1681 4750 2847 4750 
Q 3238 4750 3597 4662 
Q 3956 4575 4288 4403 
L 4288 3438 
Q 3953 3666 3628 3772 
Q 3303 3878 2944 3878 
Q 2300 3878 1931 3465 
Q 1563 3053 1563 2328 
Q 1563 1606 1931 1193 
Q 2300 781 2944 781 
Q 3303 781 3628 887 
Q 3953 994 4288 1222 
L 4288 256 
z
" transform="scale(0.015625)"/>
      <path id="DejaVuSans-Bold-70" d="M 1656 506 
L 1656 -1331 
L 538 -1331 
L 538 3500 
L 1656 3500 
L 1656 2988 
Q 1888 3294 2169 3439 
Q 2450 3584 2816 3584 
Q 3463 3584 3878 3070 
Q 4294 2556 4294 1747 
Q 4294 938 3878 423 
Q 3463 -91 2816 -91 
Q 2450 -91 2169 54 
Q 1888 200 1656 506 
z
M 2400 2772 
Q 2041 2772 1848 2508 
Q 1656 2244 1656 1747 
Q 1656 1250 1848 986 
Q 2041 722 2400 722 
Q 2759 722 2948 984 
Q 3138 1247 3138 1747 
Q 3138 2247 2948 2509 
Q 2759 2772 2400 2772 
z
" transform="scale(0.015625)"/>
      <path id="DejaVuSans-Bold-69" d="M 538 3500 
L 1656 3500 
L 1656 0 
L 538 0 
L 538 3500 
z
M 538 4863 
L 1656 4863 
L 1656 3950 
L 538 3950 
L 538 4863 
z
" transform="scale(0.015625)"/>
     </defs>
     <use xlink:href="#DejaVuSans-Bold-6d"/>
     <use xlink:href="#DejaVuSans-Bold-49" x="104.199219"/>
     <use xlink:href="#DejaVuSans-Bold-6f" x="141.40625"/>
     <use xlink:href="#DejaVuSans-Bold-55" x="210.107422"/>
     <use xlink:href="#DejaVuSans-Bold-20" x="291.308594"/>
     <use xlink:href="#DejaVuSans-Bold-43" x="326.123047"/>
     <use xlink:href="#DejaVuSans-Bold-6f" x="399.511719"/>
     <use xlink:href="#DejaVuSans-Bold-6d" x="468.212891"/>
     <use xlink:href="#DejaVuSans-Bold-70" x="572.412109"/>
     <use xlink:href="#DejaVuSans-Bold-61" x="643.994141"/>
     <use xlink:href="#DejaVuSans-Bold-72" x="711.474609"/>
     <use xlink:href="#DejaVuSans-Bold-69" x="760.791016"/>
     <use xlink:href="#DejaVuSans-Bold-73" x="795.068359"/>
     <use xlink:href="#DejaVuSans-Bold-6f" x="854.589844"/>
     <use xlink:href="#DejaVuSans-Bold-6e" x="923.291016"/>
    </g>
   </g>
   <g id="legend_1">
    <g id="line2d_12">
     <path d="M 26.03925 610.5285 
L 36.03925 610.5285 
L 46.03925 610.5285 
" style="fill: none; stroke-dasharray: 7.4,3.2; stroke-dashoffset: 0; stroke: #808080; stroke-width: 2"/>
     <g>
      <use xlink:href="#ma05e6322f7" x="36.03925" y="610.5285" style="fill: #808080; stroke: #808080"/>
     </g>
    </g>
    <g id="text_10">
     <!-- Off-Net -->
     <g transform="translate(54.03925 614.0285) scale(0.16 -0.16)">
      <defs>
       <path id="DejaVuSans-Bold-66" d="M 2841 4863 
L 2841 4128 
L 2222 4128 
Q 1984 4128 1890 4042 
Q 1797 3956 1797 3744 
L 1797 3500 
L 2753 3500 
L 2753 2700 
L 1797 2700 
L 1797 0 
L 678 0 
L 678 2700 
L 122 2700 
L 122 3500 
L 678 3500 
L 678 3744 
Q 678 4316 997 4589 
Q 1316 4863 1984 4863 
L 2841 4863 
z
" transform="scale(0.015625)"/>
       <path id="DejaVuSans-Bold-4e" d="M 588 4666 
L 1931 4666 
L 3628 1466 
L 3628 4666 
L 4769 4666 
L 4769 0 
L 3425 0 
L 1728 3200 
L 1728 0 
L 588 0 
L 588 4666 
z
" transform="scale(0.015625)"/>
      </defs>
      <use xlink:href="#DejaVuSans-Bold-4f"/>
      <use xlink:href="#DejaVuSans-Bold-66" x="85.009766"/>
      <use xlink:href="#DejaVuSans-Bold-66" x="128.515625"/>
      <use xlink:href="#DejaVuSans-Bold-2d" x="170.271484"/>
      <use xlink:href="#DejaVuSans-Bold-4e" x="211.775391"/>
      <use xlink:href="#DejaVuSans-Bold-65" x="295.466797"/>
      <use xlink:href="#DejaVuSans-Bold-74" x="363.289062"/>
     </g>
    </g>
    <g id="line2d_13">
     <path d="M 139.81175 610.5285 
L 149.81175 610.5285 
L 159.81175 610.5285 
" style="fill: none; stroke-dasharray: 7.4,3.2; stroke-dashoffset: 0; stroke: #1f77b4; stroke-width: 2"/>
     <g>
      <use xlink:href="#m8b3eed60d9" x="149.81175" y="610.5285" style="fill: #1f77b4; stroke: #1f77b4; stroke-linejoin: miter"/>
     </g>
    </g>
    <g id="text_11">
     <!-- M2F2-Net -->
     <g transform="translate(167.81175 614.0285) scale(0.16 -0.16)">
      <defs>
       <path id="DejaVuSans-Bold-4d" d="M 588 4666 
L 2119 4666 
L 3181 2169 
L 4250 4666 
L 5778 4666 
L 5778 0 
L 4641 0 
L 4641 3413 
L 3566 897 
L 2803 897 
L 1728 3413 
L 1728 0 
L 588 0 
L 588 4666 
z
" transform="scale(0.015625)"/>
       <path id="DejaVuSans-Bold-32" d="M 1844 884 
L 3897 884 
L 3897 0 
L 506 0 
L 506 884 
L 2209 2388 
Q 2438 2594 2547 2791 
Q 2656 2988 2656 3200 
Q 2656 3528 2436 3728 
Q 2216 3928 1850 3928 
Q 1569 3928 1234 3808 
Q 900 3688 519 3450 
L 519 4475 
Q 925 4609 1322 4679 
Q 1719 4750 2100 4750 
Q 2938 4750 3402 4381 
Q 3866 4013 3866 3353 
Q 3866 2972 3669 2642 
Q 3472 2313 2841 1759 
L 1844 884 
z
" transform="scale(0.015625)"/>
      </defs>
      <use xlink:href="#DejaVuSans-Bold-4d"/>
      <use xlink:href="#DejaVuSans-Bold-32" x="99.511719"/>
      <use xlink:href="#DejaVuSans-Bold-46" x="169.091797"/>
      <use xlink:href="#DejaVuSans-Bold-32" x="237.402344"/>
      <use xlink:href="#DejaVuSans-Bold-2d" x="306.982422"/>
      <use xlink:href="#DejaVuSans-Bold-4e" x="348.486328"/>
      <use xlink:href="#DejaVuSans-Bold-65" x="432.177734"/>
      <use xlink:href="#DejaVuSans-Bold-74" x="500"/>
     </g>
    </g>
    <g id="line2d_14">
     <path d="M 275.45925 610.5285 
L 285.45925 610.5285 
L 295.45925 610.5285 
" style="fill: none; stroke: #d62728; stroke-width: 5; stroke-linecap: square"/>
     <g>
      <use xlink:href="#m5b125135b0" x="285.45925" y="610.5285" style="fill: #d62728; stroke: #d62728; stroke-linejoin: bevel"/>
     </g>
    </g>
    <g id="text_12">
     <!-- OT-Drive (Ours) -->
     <g transform="translate(303.45925 614.0285) scale(0.16 -0.16)">
      <defs>
       <path id="DejaVuSans-Bold-54" d="M 31 4666 
L 4331 4666 
L 4331 3756 
L 2784 3756 
L 2784 0 
L 1581 0 
L 1581 3756 
L 31 3756 
L 31 4666 
z
" transform="scale(0.015625)"/>
       <path id="DejaVuSans-Bold-75" d="M 500 1363 
L 500 3500 
L 1625 3500 
L 1625 3150 
Q 1625 2866 1622 2436 
Q 1619 2006 1619 1863 
Q 1619 1441 1641 1255 
Q 1663 1069 1716 984 
Q 1784 875 1895 815 
Q 2006 756 2150 756 
Q 2500 756 2700 1025 
Q 2900 1294 2900 1772 
L 2900 3500 
L 4019 3500 
L 4019 0 
L 2900 0 
L 2900 506 
Q 2647 200 2364 54 
Q 2081 -91 1741 -91 
Q 1134 -91 817 281 
Q 500 653 500 1363 
z
" transform="scale(0.015625)"/>
      </defs>
      <use xlink:href="#DejaVuSans-Bold-4f"/>
      <use xlink:href="#DejaVuSans-Bold-54" x="85.009766"/>
      <use xlink:href="#DejaVuSans-Bold-2d" x="138.472656"/>
      <use xlink:href="#DejaVuSans-Bold-44" x="179.976562"/>
      <use xlink:href="#DejaVuSans-Bold-72" x="262.984375"/>
      <use xlink:href="#DejaVuSans-Bold-69" x="312.300781"/>
      <use xlink:href="#DejaVuSans-Bold-76" x="346.578125"/>
      <use xlink:href="#DejaVuSans-Bold-65" x="411.763672"/>
      <use xlink:href="#DejaVuSans-Bold-20" x="479.585938"/>
      <use xlink:href="#DejaVuSans-Bold-28" x="514.400391"/>
      <use xlink:href="#DejaVuSans-Bold-4f" x="560.103516"/>
      <use xlink:href="#DejaVuSans-Bold-75" x="645.113281"/>
      <use xlink:href="#DejaVuSans-Bold-72" x="716.304688"/>
      <use xlink:href="#DejaVuSans-Bold-73" x="765.621094"/>
      <use xlink:href="#DejaVuSans-Bold-29" x="825.142578"/>
     </g>
    </g>
   </g>
  </g>
 </g>
 <defs>
  <clipPath id="pfd540fb505">
   <path d="M 461.636 330.9726 
C 461.636 301.134606 455.758566 271.586748 444.34006 244.020036 
C 432.921554 216.453324 416.184037 191.40386 395.085389 170.305211 
C 373.98674 149.206563 348.937276 132.469046 321.370564 121.05054 
C 293.803852 109.632034 264.255994 103.7546 234.418 103.7546 
C 204.580006 103.7546 175.032148 109.632034 147.465436 121.05054 
C 119.898724 132.469046 94.84926 149.206563 73.750611 170.305211 
C 52.651963 191.40386 35.914446 216.453324 24.49594 244.020036 
C 13.077434 271.586748 7.2 301.134606 7.2 330.9726 
C 7.2 360.810594 13.077434 390.358452 24.49594 417.925164 
C 35.914446 445.491876 52.651963 470.54134 73.750611 491.639989 
C 94.84926 512.738637 119.898724 529.476154 147.465436 540.89466 
C 175.032148 552.313166 204.580006 558.1906 234.418 558.1906 
C 264.255994 558.1906 293.803852 552.313166 321.370564 540.89466 
C 348.937276 529.476154 373.98674 512.738637 395.085389 491.639989 
C 416.184037 470.54134 432.921554 445.491876 444.34006 417.925164 
C 455.758566 390.358452 461.636 360.810594 461.636 330.9726 
M 234.418 330.9726 
C 234.418 330.9726 234.418 330.9726 234.418 330.9726 
C 234.418 330.9726 234.418 330.9726 234.418 330.9726 
C 234.418 330.9726 234.418 330.9726 234.418 330.9726 
C 234.418 330.9726 234.418 330.9726 234.418 330.9726 
C 234.418 330.9726 234.418 330.9726 234.418 330.9726 
C 234.418 330.9726 234.418 330.9726 234.418 330.9726 
C 234.418 330.9726 234.418 330.9726 234.418 330.9726 
C 234.418 330.9726 234.418 330.9726 234.418 330.9726 
C 234.418 330.9726 234.418 330.9726 234.418 330.9726 
C 234.418 330.9726 234.418 330.9726 234.418 330.9726 
C 234.418 330.9726 234.418 330.9726 234.418 330.9726 
C 234.418 330.9726 234.418 330.9726 234.418 330.9726 
C 234.418 330.9726 234.418 330.9726 234.418 330.9726 
C 234.418 330.9726 234.418 330.9726 234.418 330.9726 
C 234.418 330.9726 234.418 330.9726 234.418 330.9726 
C 234.418 330.9726 234.418 330.9726 234.418 330.9726 
z
"/>
  </clipPath>
 </defs>
</svg>
